<?xml version="1.0" encoding="UTF-8"?>
<!DOCTYPE svg PUBLIC "-//W3C//DTD SVG 1.1//EN" "http://www.w3.org/Graphics/SVG/1.1/DTD/svg11.dtd">
<svg xmlns="http://www.w3.org/2000/svg" version="1.1" width="1024px" height="1024px" style="shape-rendering:geometricPrecision; text-rendering:geometricPrecision; image-rendering:optimizeQuality; fill-rule:evenodd; clip-rule:evenodd" xmlns:xlink="http://www.w3.org/1999/xlink">
<g><path style="opacity:1" fill="#000000" d="M -0.5,-0.5 C -0.166667,-0.5 0.166667,-0.5 0.5,-0.5C 0.31468,0.170143 -0.0186536,0.170143 -0.5,-0.5 Z"/></g>
<g><path style="opacity:1" fill="#7c7d00" d="M 1022.5,-0.5 C 1022.83,-0.5 1023.17,-0.5 1023.5,-0.5C 1023.5,-0.166667 1023.5,0.166667 1023.5,0.5C 1023.17,0.166667 1022.83,-0.166667 1022.5,-0.5 Z"/></g>
<g><path style="opacity:1" fill="#ebb438" d="M 661.5,367.5 C 652.232,355.896 642.232,344.896 631.5,334.5C 591.582,289.743 551.082,245.41 510,201.5C 509.493,202.996 509.993,204.163 511.5,205C 511.272,205.399 510.938,205.565 510.5,205.5C 509.833,205.167 509.167,204.833 508.5,204.5C 508.489,202.314 507.489,201.481 505.5,202C 500.272,207.39 495.272,212.89 490.5,218.5C 489.957,218.44 489.624,218.107 489.5,217.5C 490.189,215.556 490.689,213.556 491,211.5C 491.675,215.081 492.841,215.081 494.5,211.5C 494.278,209.945 493.611,208.611 492.5,207.5C 488.5,206.833 484.5,206.167 480.5,205.5C 478.901,203.271 476.901,202.938 474.5,204.5C 473.614,203.675 473.281,202.675 473.5,201.5C 471.5,201.5 469.5,201.5 467.5,201.5C 467.178,203.722 467.845,205.556 469.5,207C 472.442,206.996 475.442,207.496 478.5,208.5C 478.116,210.665 478.783,212.332 480.5,213.5C 482.204,211.959 484.037,210.625 486,209.5C 487.395,209.78 488.562,210.447 489.5,211.5C 487.225,213.882 484.725,215.215 482,215.5C 480.587,218.661 478.92,221.661 477,224.5C 476.261,223.426 475.261,222.759 474,222.5C 472.252,224.598 470.085,226.265 467.5,227.5C 466.18,225.73 464.68,225.397 463,226.5C 464.61,221.604 462.777,219.604 457.5,220.5C 459.373,217.434 461.539,214.434 464,211.5C 464.783,209.681 464.283,208.348 462.5,207.5C 461.086,208.624 459.586,209.624 458,210.5C 457.86,213.043 457.194,215.377 456,217.5C 456.263,216.049 456.096,214.716 455.5,213.5C 454.274,214.363 452.94,214.363 451.5,213.5C 470.012,192.45 488.512,171.45 507,150.5C 508.049,149.483 509.216,149.316 510.5,150C 575.902,224.732 641.569,299.399 707.5,374C 694.5,374.667 681.5,374.667 668.5,374C 666.297,371.628 663.963,369.461 661.5,367.5 Z"/></g>
<g><path style="opacity:1" fill="#f9d95d" d="M 661.5,370.5 C 661.5,369.5 661.5,368.5 661.5,367.5C 663.963,369.461 666.297,371.628 668.5,374C 681.5,374.667 694.5,374.667 707.5,374C 641.569,299.399 575.902,224.732 510.5,150C 509.216,149.316 508.049,149.483 507,150.5C 488.512,171.45 470.012,192.45 451.5,213.5C 429.737,238.437 407.737,263.27 385.5,288C 384.833,288.667 384.167,288.667 383.5,288C 385.167,286.333 386.833,284.667 388.5,283C 387.906,282.536 387.239,282.369 386.5,282.5C 425.164,239.001 463.664,195.335 502,151.5C 504.05,149.112 506.384,147.112 509,145.5C 565.301,208.14 621.301,271.14 677,334.5C 687.96,347.796 699.294,360.796 711,373.5C 711.49,374.793 711.657,376.127 711.5,377.5C 696.83,377.667 682.163,377.5 667.5,377C 665.294,374.963 663.294,372.797 661.5,370.5 Z"/></g>
<g><path style="opacity:1" fill="#eab439" d="M 490.5,218.5 C 443.187,269.635 396.521,321.135 350.5,373C 343.601,374.131 336.601,374.631 329.5,374.5C 323.167,374.167 316.833,373.833 310.5,373.5C 334.589,345.569 358.922,317.736 383.5,290C 382.584,289.722 381.918,289.222 381.5,288.5C 383.167,286.5 384.833,284.5 386.5,282.5C 387.239,282.369 387.906,282.536 388.5,283C 386.833,284.667 385.167,286.333 383.5,288C 384.167,288.667 384.833,288.667 385.5,288C 407.737,263.27 429.737,238.437 451.5,213.5C 452.94,214.363 454.274,214.363 455.5,213.5C 456.096,214.716 456.263,216.049 456,217.5C 457.194,215.377 457.86,213.043 458,210.5C 459.586,209.624 461.086,208.624 462.5,207.5C 464.283,208.348 464.783,209.681 464,211.5C 461.539,214.434 459.373,217.434 457.5,220.5C 462.777,219.604 464.61,221.604 463,226.5C 464.68,225.397 466.18,225.73 467.5,227.5C 470.085,226.265 472.252,224.598 474,222.5C 475.261,222.759 476.261,223.426 477,224.5C 478.92,221.661 480.587,218.661 482,215.5C 484.725,215.215 487.225,213.882 489.5,211.5C 488.562,210.447 487.395,209.78 486,209.5C 484.037,210.625 482.204,211.959 480.5,213.5C 478.783,212.332 478.116,210.665 478.5,208.5C 475.442,207.496 472.442,206.996 469.5,207C 467.845,205.556 467.178,203.722 467.5,201.5C 469.5,201.5 471.5,201.5 473.5,201.5C 473.281,202.675 473.614,203.675 474.5,204.5C 476.901,202.938 478.901,203.271 480.5,205.5C 484.5,206.167 488.5,206.833 492.5,207.5C 493.611,208.611 494.278,209.945 494.5,211.5C 492.841,215.081 491.675,215.081 491,211.5C 490.689,213.556 490.189,215.556 489.5,217.5C 489.624,218.107 489.957,218.44 490.5,218.5 Z"/></g>
<g><path style="opacity:1" fill="#fadc5d" d="M 508.5,204.5 C 503.276,209.221 498.109,214.221 493,219.5C 445.905,272.599 398.071,325.099 349.5,377C 334.833,377.667 320.167,377.667 305.5,377C 305.043,376.586 304.709,376.086 304.5,375.5C 329.846,346.158 355.513,317.158 381.5,288.5C 381.918,289.222 382.584,289.722 383.5,290C 358.922,317.736 334.589,345.569 310.5,373.5C 316.833,373.833 323.167,374.167 329.5,374.5C 336.601,374.631 343.601,374.131 350.5,373C 396.521,321.135 443.187,269.635 490.5,218.5C 495.272,212.89 500.272,207.39 505.5,202C 507.489,201.481 508.489,202.314 508.5,204.5 Z"/></g>
<g><path style="opacity:1" fill="#fadf5b" d="M 661.5,367.5 C 661.5,368.5 661.5,369.5 661.5,370.5C 610.804,315.806 560.471,260.806 510.5,205.5C 510.938,205.565 511.272,205.399 511.5,205C 509.993,204.163 509.493,202.996 510,201.5C 551.082,245.41 591.582,289.743 631.5,334.5C 642.232,344.896 652.232,355.896 661.5,367.5 Z"/></g>
<g><path style="opacity:1" fill="#faec6d" d="M 470.5,361.5 C 473.794,362.857 481.794,362.857 494.5,361.5C 496.5,360.167 498.5,360.167 500.5,361.5C 500.83,377.009 500.496,392.342 499.5,407.5C 499.667,393.163 499.5,378.829 499,364.5C 484.912,363.51 470.745,363.176 456.5,363.5C 456.5,378.833 456.5,394.167 456.5,409.5C 470.5,409.5 484.5,409.5 498.5,409.5C 486.684,410.162 473.351,410.828 458.5,411.5C 457.167,411.5 455.833,411.5 454.5,411.5C 454.333,394.83 454.5,378.163 455,361.5C 460.266,360.176 465.433,360.176 470.5,361.5 Z"/></g>
<g><path style="opacity:1" fill="#fad248" d="M 494.5,361.5 C 481.794,362.857 473.794,362.857 470.5,361.5C 478.552,361.016 486.552,361.016 494.5,361.5 Z"/></g>
<g><path style="opacity:1" fill="#ebb439" d="M 499.5,407.5 C 498.662,407.842 498.328,408.508 498.5,409.5C 484.5,409.5 470.5,409.5 456.5,409.5C 456.5,394.167 456.5,378.833 456.5,363.5C 470.745,363.176 484.912,363.51 499,364.5C 499.5,378.829 499.667,393.163 499.5,407.5 Z"/></g>
<g><path style="opacity:1" fill="#faf857" d="M 558.5,360.5 C 545.833,361.167 533.167,361.833 520.5,362.5C 519.833,362.5 519.5,362.833 519.5,363.5C 518.517,378.422 518.184,393.422 518.5,408.5C 518.167,408.5 517.833,408.5 517.5,408.5C 517.5,392.833 517.5,377.167 517.5,361.5C 530.99,360.504 544.656,360.171 558.5,360.5 Z"/></g>
<g><path style="opacity:1" fill="#faef7d" d="M 519.5,363.5 C 519.5,362.833 519.833,362.5 520.5,362.5C 534.5,362.5 548.5,362.5 562.5,362.5C 562.5,378.5 562.5,394.5 562.5,410.5C 547.129,411.15 532.129,410.484 517.5,408.5C 517.833,408.5 518.167,408.5 518.5,408.5C 532.755,409.482 547.088,409.816 561.5,409.5C 561.5,394.167 561.5,378.833 561.5,363.5C 547.5,363.5 533.5,363.5 519.5,363.5 Z"/></g>
<g><path style="opacity:1" fill="#eab439" d="M 519.5,363.5 C 533.5,363.5 547.5,363.5 561.5,363.5C 561.5,378.833 561.5,394.167 561.5,409.5C 547.088,409.816 532.755,409.482 518.5,408.5C 518.184,393.422 518.517,378.422 519.5,363.5 Z"/></g>
<g><path style="opacity:1" fill="#f0c04b" d="M 558.5,360.5 C 560.144,360.286 561.644,360.62 563,361.5C 563.5,377.83 563.667,394.163 563.5,410.5C 563.167,410.5 562.833,410.5 562.5,410.5C 562.5,394.5 562.5,378.5 562.5,362.5C 548.5,362.5 534.5,362.5 520.5,362.5C 533.167,361.833 545.833,361.167 558.5,360.5 Z"/></g>
<g><path style="opacity:1" fill="#f6cb4b" d="M 500.5,361.5 C 501.497,377.992 501.83,394.658 501.5,411.5C 487.167,411.5 472.833,411.5 458.5,411.5C 473.351,410.828 486.684,410.162 498.5,409.5C 498.328,408.508 498.662,407.842 499.5,407.5C 500.496,392.342 500.83,377.009 500.5,361.5 Z"/></g>
<g><path style="opacity:1" fill="#fad750" d="M 517.5,361.5 C 517.5,377.167 517.5,392.833 517.5,408.5C 532.129,410.484 547.129,411.15 562.5,410.5C 562.833,410.5 563.167,410.5 563.5,410.5C 562.828,411.267 561.995,411.934 561,412.5C 546.262,411.538 531.595,411.205 517,411.5C 516.172,394.662 516.338,377.995 517.5,361.5 Z"/></g>
<g><path style="opacity:1" fill="#f9e667" d="M 458.5,427.5 C 464.295,428.83 470.462,429.496 477,429.5C 483.167,429.333 489.333,429.167 495.5,429C 493.292,428.809 491.292,428.309 489.5,427.5C 493.437,427.207 497.27,427.54 501,428.5C 501.667,445.167 501.667,461.833 501,478.5C 485.908,479.657 470.741,479.824 455.5,479C 454.748,478.329 454.414,477.496 454.5,476.5C 455.5,476.5 456.5,476.5 457.5,476.5C 471.5,476.5 485.5,476.5 499.5,476.5C 499.5,461.167 499.5,445.833 499.5,430.5C 485.5,430.5 471.5,430.5 457.5,430.5C 456.609,431.11 455.609,431.443 454.5,431.5C 454.167,428.5 455.5,427.167 458.5,427.5 Z"/></g>
<g><path style="opacity:1" fill="#facd50" d="M 458.5,427.5 C 468.833,427.5 479.167,427.5 489.5,427.5C 491.292,428.309 493.292,428.809 495.5,429C 489.333,429.167 483.167,429.333 477,429.5C 470.462,429.496 464.295,428.83 458.5,427.5 Z"/></g>
<g><path style="opacity:1" fill="#fad950" d="M 457.5,430.5 C 457.5,445.833 457.5,461.167 457.5,476.5C 456.5,476.5 455.5,476.5 454.5,476.5C 454.5,461.5 454.5,446.5 454.5,431.5C 455.609,431.443 456.609,431.11 457.5,430.5 Z"/></g>
<g><path style="opacity:1" fill="#fae05b" d="M 563.5,430.5 C 548.245,429.517 532.911,429.183 517.5,429.5C 517.83,445.342 517.496,461.009 516.5,476.5C 516.175,460.256 516.509,444.089 517.5,428C 532.5,427.333 547.5,427.333 562.5,428C 563.252,428.671 563.586,429.504 563.5,430.5 Z"/></g>
<g><path style="opacity:1" fill="#eab438" d="M 457.5,430.5 C 471.5,430.5 485.5,430.5 499.5,430.5C 499.5,445.833 499.5,461.167 499.5,476.5C 485.5,476.5 471.5,476.5 457.5,476.5C 457.5,461.167 457.5,445.833 457.5,430.5 Z"/></g>
<g><path style="opacity:1" fill="#faf371" d="M 563.5,430.5 C 563.5,430.833 563.5,431.167 563.5,431.5C 562.865,447.375 562.198,462.041 561.5,475.5C 561.5,460.5 561.5,445.5 561.5,430.5C 547.167,430.5 532.833,430.5 518.5,430.5C 518.333,445.504 518.5,460.504 519,475.5C 532.421,476.49 545.921,476.823 559.5,476.5C 546.673,477.331 533.673,477.831 520.5,478C 533.34,478.169 546.007,478.669 558.5,479.5C 544.829,479.667 531.163,479.5 517.5,479C 516.748,478.329 516.414,477.496 516.5,476.5C 517.496,461.009 517.83,445.342 517.5,429.5C 532.911,429.183 548.245,429.517 563.5,430.5 Z"/></g>
<g><path style="opacity:1" fill="#ebb438" d="M 561.5,475.5 C 560.833,475.833 560.167,476.167 559.5,476.5C 545.921,476.823 532.421,476.49 519,475.5C 518.5,460.504 518.333,445.504 518.5,430.5C 532.833,430.5 547.167,430.5 561.5,430.5C 561.5,445.5 561.5,460.5 561.5,475.5 Z"/></g>
<g><path style="opacity:1" fill="#f4d058" d="M 563.5,431.5 C 563.667,447.17 563.5,462.837 563,478.5C 561.644,479.38 560.144,479.714 558.5,479.5C 546.007,478.669 533.34,478.169 520.5,478C 533.673,477.831 546.673,477.331 559.5,476.5C 560.167,476.167 560.833,475.833 561.5,475.5C 562.198,462.041 562.865,447.375 563.5,431.5 Z"/></g>
<g><path style="opacity:1" fill="#f9d95c" d="M 189.5,611.5 C 192.833,612.5 196.167,613.5 199.5,614.5C 201.19,615.103 202.69,616.103 204,617.5C 204.667,626.833 204.667,636.167 204,645.5C 200.595,648.865 196.429,650.698 191.5,651C 166.821,653.918 150.321,643.751 142,620.5C 137.864,604.133 138.864,588.133 145,572.5C 158.385,552.795 176.552,546.961 199.5,555C 208.667,558.833 215.167,565.333 219,574.5C 219.831,567.144 219.665,559.811 218.5,552.5C 208.283,549.271 197.783,547.938 187,548.5C 163.669,546.345 144.002,553.678 128,570.5C 114.115,592.128 114.115,613.795 128,635.5C 138.927,647.097 152.427,653.431 168.5,654.5C 175.989,655.329 183.656,655.829 191.5,656C 183.323,656.171 175.323,656.671 167.5,657.5C 128.698,651.927 111.532,629.593 116,590.5C 121.408,568.758 134.908,554.925 156.5,549C 177.904,544.145 199.237,544.479 220.5,550C 221,550.5 221.5,551 222,551.5C 222.816,560.079 222.649,568.579 221.5,577C 220.167,577.667 218.833,577.667 217.5,577C 212.835,565.671 204.502,558.671 192.5,556C 163.322,551.187 146.488,563.354 142,592.5C 139.749,611.416 145.249,627.582 158.5,641C 168.88,647.621 180.214,649.955 192.5,648C 195.352,647.731 198.018,646.897 200.5,645.5C 202.92,636.58 203.086,627.58 201,618.5C 197.287,615.806 193.454,613.473 189.5,611.5 Z"/></g>
<g><path style="opacity:1" fill="#fae976" d="M 444.5,547.5 C 444.5,548.833 443.833,549.5 442.5,549.5C 442.167,549.5 441.833,549.5 441.5,549.5C 421.34,548.503 401.007,548.17 380.5,548.5C 380.5,549.833 380.5,551.167 380.5,552.5C 379.549,551.081 379.216,549.415 379.5,547.5C 401.167,547.5 422.833,547.5 444.5,547.5 Z"/></g>
<g><path style="opacity:1" fill="#faec78" d="M 699.5,553.5 C 699.082,552.778 698.416,552.278 697.5,552C 698.308,551.692 698.975,551.192 699.5,550.5C 684.178,549.334 668.844,549.167 653.5,550C 654.044,550.717 654.711,551.217 655.5,551.5C 657.898,551.259 659.898,551.926 661.5,553.5C 660.209,553.263 659.209,553.596 658.5,554.5C 656.586,553.815 654.586,553.315 652.5,553C 651.594,551.301 651.261,549.467 651.5,547.5C 668.5,547.5 685.5,547.5 702.5,547.5C 702.66,549.199 702.494,550.866 702,552.5C 701.329,553.252 700.496,553.586 699.5,553.5 Z"/></g>
<g><path style="opacity:1" fill="#faf181" d="M 907.5,550.5 C 906.5,550.5 905.5,550.5 904.5,550.5C 877.33,549.171 849.997,549.171 822.5,550.5C 824.045,551.452 825.712,551.785 827.5,551.5C 825.5,552.167 823.5,552.833 821.5,553.5C 819.353,552.068 819.02,550.235 820.5,548C 849.167,547.333 877.833,547.333 906.5,548C 907.252,548.671 907.586,549.504 907.5,550.5 Z"/></g>
<g><path style="opacity:1" fill="#faf991" d="M 441.5,549.5 C 421.822,549.167 402.155,549.5 382.5,550.5C 383.949,551.172 385.282,551.839 386.5,552.5C 384.5,552.5 382.5,552.5 380.5,552.5C 380.5,551.167 380.5,549.833 380.5,548.5C 401.007,548.17 421.34,548.503 441.5,549.5 Z"/></g>
<g><path style="opacity:1" fill="#faf485" d="M 582.5,547.5 C 582.833,548.167 583.167,548.833 583.5,549.5C 563.156,549.167 542.822,549.5 522.5,550.5C 523.325,551.386 524.325,551.719 525.5,551.5C 526.833,552.5 526.833,553.5 525.5,554.5C 520.631,554.631 518.631,552.297 519.5,547.5C 540.5,547.5 561.5,547.5 582.5,547.5 Z"/></g>
<g><path style="opacity:1" fill="#f9dd5e" d="M 582.5,547.5 C 594.539,547.672 604.706,552.006 613,560.5C 622.646,582.041 616.146,596.375 593.5,603.5C 592.048,602.698 590.382,602.198 588.5,602C 597.275,600.031 604.775,595.865 611,589.5C 619.121,575.372 616.288,564.038 602.5,555.5C 596.309,552.545 589.976,550.545 583.5,549.5C 583.167,548.833 582.833,548.167 582.5,547.5 Z"/></g>
<g><path style="opacity:1" fill="#fada5d" d="M 444.5,547.5 C 463.784,547.565 479.951,554.565 493,568.5C 502.668,581.496 505.835,595.829 502.5,611.5C 502.966,573.259 482.966,552.592 442.5,549.5C 443.833,549.5 444.5,548.833 444.5,547.5 Z"/></g>
<g><path style="opacity:1" fill="#e9b038" d="M 655.5,551.5 C 668.66,550.34 681.994,550.173 695.5,551C 690.683,551.796 688.016,554.629 687.5,559.5C 686.678,561.389 685.845,563.389 685,565.5C 684.676,579.507 684.176,593.507 683.5,607.5C 684.627,616.326 684.627,625.159 683.5,634C 683.606,638.146 684.272,642.146 685.5,646C 684.576,647.811 683.743,647.645 683,645.5C 682.586,645.957 682.086,646.291 681.5,646.5C 678.497,645.915 675.497,645.248 672.5,644.5C 675.716,643.672 678.716,643.338 681.5,643.5C 679.52,615.658 678.853,587.658 679.5,559.5C 676.5,559.5 673.5,559.5 670.5,559.5C 670.158,572.729 670.825,586.063 672.5,599.5C 672.328,610.136 671.828,610.136 671,599.5C 670.667,612.5 670.333,625.5 670,638.5C 669.583,639.756 668.75,640.423 667.5,640.5C 667.667,613.165 667.5,585.831 667,558.5C 665.924,555.921 664.091,554.254 661.5,553.5C 659.898,551.926 657.898,551.259 655.5,551.5 Z"/></g>
<g><path style="opacity:1" fill="#fade5a" d="M 794.5,551.5 C 794.849,558.726 795.849,565.726 797.5,572.5C 797.586,573.496 797.252,574.329 796.5,575C 794.833,575.667 793.167,575.667 791.5,575C 783.663,557.086 770.33,551.086 751.5,557C 748.977,558.36 746.977,560.193 745.5,562.5C 745.19,561.262 744.69,561.262 744,562.5C 745.107,558.377 747.773,555.377 752,553.5C 771.124,548.65 784.958,554.983 793.5,572.5C 794.497,565.532 794.83,558.532 794.5,551.5 Z"/></g>
<g><path style="opacity:1" fill="#f7d059" d="M 699.5,553.5 C 695.157,553.997 691.824,555.997 689.5,559.5C 688.778,559.918 688.278,560.584 688,561.5C 687.536,560.906 687.369,560.239 687.5,559.5C 688.016,554.629 690.683,551.796 695.5,551C 681.994,550.173 668.66,550.34 655.5,551.5C 654.711,551.217 654.044,550.717 653.5,550C 668.844,549.167 684.178,549.334 699.5,550.5C 698.975,551.192 698.308,551.692 697.5,552C 698.416,552.278 699.082,552.778 699.5,553.5 Z"/></g>
<g><path style="opacity:1" fill="#f9dc61" d="M 904.5,550.5 C 905.5,550.5 906.5,550.5 907.5,550.5C 907.666,558.507 907.5,566.507 907,574.5C 905.062,575.86 903.396,575.527 902,573.5C 899.438,563.267 892.938,557.767 882.5,557C 877.177,556.501 871.844,556.334 866.5,556.5C 863.579,555.806 860.579,554.973 857.5,554C 868.981,552.844 880.314,553.511 891.5,556C 898.266,559.096 902.432,564.263 904,571.5C 904.5,564.508 904.666,557.508 904.5,550.5 Z"/></g>
<g><path style="opacity:1" fill="#e9b83b" d="M 687.5,559.5 C 687.369,560.239 687.536,560.906 688,561.5C 688.278,560.584 688.778,559.918 689.5,559.5C 689.5,587.833 689.5,616.167 689.5,644.5C 688.732,643.737 688.232,642.737 688,641.5C 687.516,643.913 687.85,646.246 689,648.5C 692.652,650.563 695.818,652.229 698.5,653.5C 683.83,653.667 669.163,653.5 654.5,653C 655.056,652.617 655.389,652.117 655.5,651.5C 660.34,652.244 664.007,650.578 666.5,646.5C 667.15,644.565 667.483,642.565 667.5,640.5C 668.75,640.423 669.583,639.756 670,638.5C 670.333,625.5 670.667,612.5 671,599.5C 671.828,610.136 672.328,610.136 672.5,599.5C 670.825,586.063 670.158,572.729 670.5,559.5C 673.5,559.5 676.5,559.5 679.5,559.5C 678.853,587.658 679.52,615.658 681.5,643.5C 678.716,643.338 675.716,643.672 672.5,644.5C 675.497,645.248 678.497,645.915 681.5,646.5C 682.086,646.291 682.586,645.957 683,645.5C 683.743,647.645 684.576,647.811 685.5,646C 684.272,642.146 683.606,638.146 683.5,634C 684.627,625.159 684.627,616.326 683.5,607.5C 684.176,593.507 684.676,579.507 685,565.5C 685.845,563.389 686.678,561.389 687.5,559.5 Z"/></g>
<g><path style="opacity:1" fill="#f9c645" d="M 794.5,549.5 C 795.458,549.953 796.292,550.619 797,551.5C 797.5,558.492 797.666,565.492 797.5,572.5C 795.849,565.726 794.849,558.726 794.5,551.5C 794.5,550.833 794.5,550.167 794.5,549.5 Z"/></g>
<g><path style="opacity:1" fill="#fae467" d="M 380.5,552.5 C 382.5,552.5 384.5,552.5 386.5,552.5C 390.433,552.411 393.266,554.078 395,557.5C 395.667,586.5 395.667,615.5 395,644.5C 394.837,615.761 394.337,587.761 393.5,560.5C 392.399,559.152 391.399,557.652 390.5,556C 387.058,554.816 383.725,553.65 380.5,552.5 Z"/></g>
<g><path style="opacity:1" fill="#e9b53a" d="M 583.5,549.5 C 589.976,550.545 596.309,552.545 602.5,555.5C 616.288,564.038 619.121,575.372 611,589.5C 604.775,595.865 597.275,600.031 588.5,602C 590.382,602.198 592.048,602.698 593.5,603.5C 592.209,603.263 591.209,603.596 590.5,604.5C 590.565,604.938 590.399,605.272 590,605.5C 587.946,603.453 586.946,603.453 587,605.5C 588.154,606.743 589.488,607.743 591,608.5C 598.768,620.227 607.101,631.56 616,642.5C 620.619,648.138 626.452,651.638 633.5,653C 624.833,653.667 616.167,653.667 607.5,653C 602.692,651.764 598.692,649.264 595.5,645.5C 586.775,632.553 577.442,620.053 567.5,608C 565.861,606.481 564.194,606.314 562.5,607.5C 561.167,607.5 559.833,607.5 558.5,607.5C 558.333,619.838 558.5,632.171 559,644.5C 559.377,645.942 560.21,646.942 561.5,647.5C 561.44,648.043 561.107,648.376 560.5,648.5C 559.148,647.476 557.815,646.476 556.5,645.5C 555.34,632.34 555.173,619.006 556,605.5C 558.953,604.249 561.953,604.249 565,605.5C 565.5,605.167 566,604.833 566.5,604.5C 566.154,603.304 565.654,603.304 565,604.5C 564.536,603.906 564.369,603.239 564.5,602.5C 567.385,602.806 570.052,602.473 572.5,601.5C 583.55,601.273 590.717,595.939 594,585.5C 597.096,572.25 592.93,562.25 581.5,555.5C 572.94,553.705 564.273,553.038 555.5,553.5C 555.5,555.167 555.5,556.833 555.5,558.5C 554.778,558.918 554.278,559.584 554,560.5C 553.808,558.423 553.308,556.423 552.5,554.5C 551.808,568.353 551.142,582.187 550.5,596C 551.33,599.488 552.33,602.988 553.5,606.5C 552.211,612.327 551.544,618.327 551.5,624.5C 551.544,630.673 552.211,636.673 553.5,642.5C 551.259,644.452 549.259,646.618 547.5,649C 546.275,649.563 545.275,649.23 544.5,648C 544.323,645.631 544.656,643.131 545.5,640.5C 545.192,639.692 544.692,639.025 544,638.5C 543.333,626.5 543.333,614.5 544,602.5C 544.692,601.975 545.192,601.308 545.5,600.5C 542.534,597.257 542.867,594.424 546.5,592C 545.584,591.626 544.75,591.126 544,590.5C 543.333,580.5 542.667,570.5 542,560.5C 541.337,580.173 541.504,599.839 542.5,619.5C 542.167,623.5 541.833,627.5 541.5,631.5C 541.167,630.167 540.833,628.833 540.5,627.5C 540.738,610.357 540.405,593.191 539.5,576C 539.667,570.833 539.833,565.667 540,560.5C 541.929,558.315 541.429,556.649 538.5,555.5C 537.498,584.994 536.498,614.328 535.5,643.5C 535.667,615.165 535.5,586.831 535,558.5C 533.445,554.125 530.278,551.792 525.5,551.5C 524.325,551.719 523.325,551.386 522.5,550.5C 542.822,549.5 563.156,549.167 583.5,549.5 Z M 562.5,556.5 C 585.282,554.112 594.782,564.112 591,586.5C 587.824,593.669 582.324,597.836 574.5,599C 570.848,599.499 567.182,599.665 563.5,599.5C 561.833,599.5 560.167,599.5 558.5,599.5C 558.5,585.167 558.5,570.833 558.5,556.5C 559.833,556.5 561.167,556.5 562.5,556.5 Z"/></g>
<g><path style="opacity:1" fill="#f9e05e" d="M 572.5,601.5 C 568.486,601.666 564.486,601.499 560.5,601C 561.737,600.768 562.737,600.268 563.5,599.5C 567.182,599.665 570.848,599.499 574.5,599C 582.324,597.836 587.824,593.669 591,586.5C 594.782,564.112 585.282,554.112 562.5,556.5C 561.003,555.694 559.336,555.028 557.5,554.5C 556.833,569.661 556.167,584.661 555.5,599.5C 555.5,585.833 555.5,572.167 555.5,558.5C 555.5,556.833 555.5,555.167 555.5,553.5C 564.273,553.038 572.94,553.705 581.5,555.5C 592.93,562.25 597.096,572.25 594,585.5C 590.717,595.939 583.55,601.273 572.5,601.5 Z M 562.5,556.5 C 585.282,554.112 594.782,564.112 591,586.5C 587.824,593.669 582.324,597.836 574.5,599C 570.848,599.499 567.182,599.665 563.5,599.5C 561.833,599.5 560.167,599.5 558.5,599.5C 558.5,585.167 558.5,570.833 558.5,556.5C 559.833,556.5 561.167,556.5 562.5,556.5 Z"/></g>
<g><path style="opacity:1" fill="#eab338" d="M 441.5,549.5 C 441.833,549.5 442.167,549.5 442.5,549.5C 482.966,552.592 502.966,573.259 502.5,611.5C 502.326,613.861 501.993,616.194 501.5,618.5C 500.698,617.048 500.198,615.382 500,613.5C 495.604,629.228 486.104,640.728 471.5,648C 464.363,649.844 457.363,651.677 450.5,653.5C 427.425,653.833 405.091,653.499 383.5,652.5C 388.232,652.304 391.898,650.304 394.5,646.5C 393.8,646.213 393.133,645.88 392.5,645.5C 393.475,617.198 393.809,588.865 393.5,560.5C 394.337,587.761 394.837,615.761 395,644.5C 395.667,615.5 395.667,586.5 395,557.5C 393.266,554.078 390.433,552.411 386.5,552.5C 385.282,551.839 383.949,551.172 382.5,550.5C 402.155,549.5 421.822,549.167 441.5,549.5 Z M 421.5,556.5 C 460.323,554.656 478.656,572.989 476.5,611.5C 474.84,630.861 464.507,642.194 445.5,645.5C 437.15,646.929 428.817,646.763 420.5,645C 419.004,642.286 418.004,639.453 417.5,636.5C 418.143,609.833 418.477,583.166 418.5,556.5C 419.5,556.5 420.5,556.5 421.5,556.5 Z"/></g>
<g><path style="opacity:1" fill="#fae762" d="M 416.5,556.5 C 416.164,585.86 416.497,612.526 417.5,636.5C 418.004,639.453 419.004,642.286 420.5,645C 428.817,646.763 437.15,646.929 445.5,645.5C 445.557,646.609 445.89,647.609 446.5,648.5C 439.514,649.332 432.514,649.499 425.5,649C 421.105,649.06 417.939,647.226 416,643.5C 415.17,614.33 415.336,585.33 416.5,556.5 Z"/></g>
<g><path style="opacity:1" fill="#f9df5e" d="M 436.5,554.5 C 461.702,556.871 475.869,570.537 479,595.5C 479.667,602.167 479.667,608.833 479,615.5C 478.802,617.382 478.302,619.048 477.5,620.5C 477.81,617.287 477.477,614.287 476.5,611.5C 478.656,572.989 460.323,554.656 421.5,556.5C 420.737,555.732 419.737,555.232 418.5,555C 424.491,554.501 430.491,554.334 436.5,554.5 Z"/></g>
<g><path style="opacity:1" fill="#f8d04f" d="M 658.5,554.5 C 659.209,553.596 660.209,553.263 661.5,553.5C 664.091,554.254 665.924,555.921 667,558.5C 667.5,585.831 667.667,613.165 667.5,640.5C 667.483,642.565 667.15,644.565 666.5,646.5C 664.564,647.259 662.731,648.259 661,649.5C 660.235,649.43 659.735,649.097 659.5,648.5C 662.212,647.953 663.712,646.287 664,643.5C 664.667,615.833 664.667,588.167 664,560.5C 663.375,557.375 661.541,555.375 658.5,554.5 Z"/></g>
<g><path style="opacity:1" fill="#fae266" d="M 827.5,551.5 C 830.664,552.163 833.164,553.83 835,556.5C 835.667,586.833 835.667,617.167 835,647.5C 832.021,650.88 828.188,652.547 823.5,652.5C 822.791,651.596 821.791,651.263 820.5,651.5C 820.611,650.883 820.944,650.383 821.5,650C 826.815,650.264 830.649,648.097 833,643.5C 833.667,615.5 833.667,587.5 833,559.5C 830.378,555.338 826.545,553.338 821.5,553.5C 823.5,552.833 825.5,552.167 827.5,551.5 Z"/></g>
<g><path style="opacity:1" fill="#e7b039" d="M 555.5,558.5 C 555.5,572.167 555.5,585.833 555.5,599.5C 555.414,600.496 555.748,601.329 556.5,602C 559.146,602.497 561.813,602.664 564.5,602.5C 564.369,603.239 564.536,603.906 565,604.5C 565.654,603.304 566.154,603.304 566.5,604.5C 566,604.833 565.5,605.167 565,605.5C 561.953,604.249 558.953,604.249 556,605.5C 555.173,619.006 555.34,632.34 556.5,645.5C 558.861,650.356 562.861,652.69 568.5,652.5C 553.676,653.496 538.676,653.829 523.5,653.5C 526.518,652.497 529.518,651.164 532.5,649.5C 534.038,647.757 535.038,645.757 535.5,643.5C 536.498,614.328 537.498,584.994 538.5,555.5C 541.429,556.649 541.929,558.315 540,560.5C 539.833,565.667 539.667,570.833 539.5,576C 540.405,593.191 540.738,610.357 540.5,627.5C 540.833,628.833 541.167,630.167 541.5,631.5C 541.833,627.5 542.167,623.5 542.5,619.5C 541.504,599.839 541.337,580.173 542,560.5C 542.667,570.5 543.333,580.5 544,590.5C 544.75,591.126 545.584,591.626 546.5,592C 542.867,594.424 542.534,597.257 545.5,600.5C 545.192,601.308 544.692,601.975 544,602.5C 543.333,614.5 543.333,626.5 544,638.5C 544.692,639.025 545.192,639.692 545.5,640.5C 544.656,643.131 544.323,645.631 544.5,648C 545.275,649.23 546.275,649.563 547.5,649C 549.259,646.618 551.259,644.452 553.5,642.5C 552.211,636.673 551.544,630.673 551.5,624.5C 551.544,618.327 552.211,612.327 553.5,606.5C 552.33,602.988 551.33,599.488 550.5,596C 551.142,582.187 551.808,568.353 552.5,554.5C 553.308,556.423 553.808,558.423 554,560.5C 554.278,559.584 554.778,558.918 555.5,558.5 Z"/></g>
<g><path style="opacity:1" fill="#e9b53b" d="M 904.5,550.5 C 904.666,557.508 904.5,564.508 904,571.5C 902.432,564.263 898.266,559.096 891.5,556C 880.314,553.511 868.981,552.844 857.5,554C 860.579,554.973 863.579,555.806 866.5,556.5C 863.5,556.5 860.5,556.5 857.5,556.5C 857.5,569.5 857.5,582.5 857.5,595.5C 860.167,595.5 862.833,595.5 865.5,595.5C 862.972,596.166 860.306,596.832 857.5,597.5C 867.528,598.832 877.528,598.665 887.5,597C 890.21,594.372 892.544,591.539 894.5,588.5C 894.831,597.192 894.498,605.859 893.5,614.5C 892.893,614.376 892.56,614.043 892.5,613.5C 892.288,608.123 889.622,604.623 884.5,603C 874.658,602.175 864.991,602.342 855.5,603.5C 854.087,617.042 854.254,630.708 856,644.5C 856.377,645.942 857.21,646.942 858.5,647.5C 870.804,650.004 883.137,649.838 895.5,647C 898.562,645.939 901.062,644.106 903,641.5C 905.765,637.739 908.098,633.739 910,629.5C 910.333,630.5 910.667,631.5 911,632.5C 911.278,631.584 911.778,630.918 912.5,630.5C 912.167,633.167 911.833,635.833 911.5,638.5C 910.698,637.048 910.198,635.382 910,633.5C 908.475,636.72 907.808,640.053 908,643.5C 908.69,642.262 909.19,642.262 909.5,643.5C 909.326,645.861 908.993,648.194 908.5,650.5C 907.535,644.018 906.535,644.018 905.5,650.5C 905.5,651.5 905.5,652.5 905.5,653.5C 877.426,653.833 850.092,653.499 823.5,652.5C 828.188,652.547 832.021,650.88 835,647.5C 835.667,617.167 835.667,586.833 835,556.5C 833.164,553.83 830.664,552.163 827.5,551.5C 825.712,551.785 824.045,551.452 822.5,550.5C 849.997,549.171 877.33,549.171 904.5,550.5 Z"/></g>
<g><path style="opacity:1" fill="#fadd61" d="M 890.5,586.5 C 892.153,586.66 893.486,587.326 894.5,588.5C 892.544,591.539 890.21,594.372 887.5,597C 877.528,598.665 867.528,598.832 857.5,597.5C 860.306,596.832 862.972,596.166 865.5,595.5C 872.589,595.884 879.589,595.384 886.5,594C 888.87,592.059 890.203,589.559 890.5,586.5 Z"/></g>
<g><path style="opacity:1" fill="#fae46d" d="M 525.5,551.5 C 530.278,551.792 533.445,554.125 535,558.5C 535.5,586.831 535.667,615.165 535.5,643.5C 535.038,645.757 534.038,647.757 532.5,649.5C 529.518,651.164 526.518,652.497 523.5,653.5C 522.169,650.951 521.169,651.284 520.5,654.5C 519.218,653.292 519.218,651.958 520.5,650.5C 524.028,649.894 527.361,648.728 530.5,647C 531.893,645.829 532.727,644.329 533,642.5C 533.667,615.5 533.667,588.5 533,561.5C 532.271,557.271 529.771,554.938 525.5,554.5C 526.833,553.5 526.833,552.5 525.5,551.5 Z"/></g>
<g><path style="opacity:1" fill="#e7b339" d="M 794.5,551.5 C 794.83,558.532 794.497,565.532 793.5,572.5C 784.958,554.983 771.124,548.65 752,553.5C 747.773,555.377 745.107,558.377 744,562.5C 744.69,561.262 745.19,561.262 745.5,562.5C 745.167,563.833 744.833,565.167 744.5,566.5C 743.732,565.737 743.232,564.737 743,563.5C 740.279,571.24 742.113,577.74 748.5,583C 762.386,588.853 776.386,594.52 790.5,600C 802.014,610.704 804.68,623.371 798.5,638C 790.92,648.625 780.586,654.291 767.5,655C 756.725,655.979 746.059,655.312 735.5,653C 731.356,651.734 727.523,649.901 724,647.5C 723.168,639.479 723.335,631.479 724.5,623.5C 732.559,645.209 748.226,654.043 771.5,650C 782.878,645.751 787.378,637.585 785,625.5C 783.207,622.705 781.04,620.205 778.5,618C 769.594,613.212 760.261,609.546 750.5,607C 743.406,603.706 736.906,599.54 731,594.5C 728.607,592.381 727.274,589.715 727,586.5C 723.901,567.518 731.401,555.018 749.5,549C 764.702,546.494 779.702,547.327 794.5,551.5 Z"/></g>
<g><path style="opacity:1" fill="#fad557" d="M 562.5,556.5 C 561.167,556.5 559.833,556.5 558.5,556.5C 558.5,570.833 558.5,585.167 558.5,599.5C 560.167,599.5 561.833,599.5 563.5,599.5C 562.737,600.268 561.737,600.768 560.5,601C 564.486,601.499 568.486,601.666 572.5,601.5C 570.052,602.473 567.385,602.806 564.5,602.5C 561.813,602.664 559.146,602.497 556.5,602C 555.748,601.329 555.414,600.496 555.5,599.5C 556.167,584.661 556.833,569.661 557.5,554.5C 559.336,555.028 561.003,555.694 562.5,556.5 Z"/></g>
<g><path style="opacity:1" fill="#f9dd5b" d="M 329.5,590.5 C 337.403,606.644 345.07,622.977 352.5,639.5C 351.12,640.706 349.953,640.373 349,638.5C 341.28,623.062 334.113,607.395 327.5,591.5C 328.2,591.213 328.867,590.88 329.5,590.5 Z"/></g>
<g><path style="opacity:1" fill="#fae46b" d="M 225.5,619.5 C 224.642,623.407 224.142,628.074 224,633.5C 223.501,629.179 223.334,624.846 223.5,620.5C 224.357,614.811 227.69,611.644 233.5,611C 219.833,610.333 206.167,610.333 192.5,611C 195.398,611.436 197.731,612.603 199.5,614.5C 196.167,613.5 192.833,612.5 189.5,611.5C 189.33,610.178 189.663,609.011 190.5,608C 205.833,607.333 221.167,607.333 236.5,608C 237.554,609.388 237.72,610.888 237,612.5C 234.276,613.892 231.443,615.058 228.5,616C 227.364,617.145 226.364,618.312 225.5,619.5 Z"/></g>
<g><path style="opacity:1" fill="#e8b338" d="M 328.5,588.5 C 329.338,588.842 329.672,589.508 329.5,590.5C 328.867,590.88 328.2,591.213 327.5,591.5C 334.113,607.395 341.28,623.062 349,638.5C 349.953,640.373 351.12,640.706 352.5,639.5C 353.488,640.795 354.488,642.128 355.5,643.5C 354.671,644.332 353.838,643.999 353,642.5C 354.237,645.776 356.403,648.609 359.5,651C 361.473,651.495 363.473,651.662 365.5,651.5C 365.611,652.117 365.944,652.617 366.5,653C 351.833,653.667 337.167,653.667 322.5,653C 323.056,652.617 323.389,652.117 323.5,651.5C 325.857,651.663 328.19,651.497 330.5,651C 332.007,649.527 332.674,647.693 332.5,645.5C 329.44,636.337 325.774,627.337 321.5,618.5C 306.848,617.501 292.182,617.167 277.5,617.5C 275.354,624.731 273.188,632.064 271,639.5C 270.333,642.167 270.333,644.833 271,647.5C 271.279,644.543 272.113,641.877 273.5,639.5C 273.336,642.187 273.503,644.854 274,647.5C 275.584,648.861 277.418,649.528 279.5,649.5C 278.048,650.302 276.382,650.802 274.5,651C 276.611,651.845 278.611,652.678 280.5,653.5C 268.988,653.828 257.654,653.495 246.5,652.5C 248.924,651.97 251.257,651.136 253.5,650C 257.935,645.622 261.768,640.788 265,635.5C 277.274,606.282 290.108,577.282 303.5,548.5C 304.689,547.571 306.022,547.238 307.5,547.5C 313.623,561.523 320.123,575.523 327,589.5C 327.383,588.944 327.883,588.611 328.5,588.5 Z M 301.5,583.5 C 306.092,592.352 310.425,601.352 314.5,610.5C 304.517,611.666 294.517,611.832 284.5,611C 288.906,601.686 292.906,592.186 296.5,582.5C 298.639,577.223 300.306,577.557 301.5,583.5 Z"/></g>
<g><path style="opacity:1" fill="#f9e062" d="M 855.5,603.5 C 864.991,602.342 874.658,602.175 884.5,603C 889.622,604.623 892.288,608.123 892.5,613.5C 891.5,613.5 890.5,613.5 889.5,613.5C 889.456,609.91 887.789,607.41 884.5,606C 876.236,604.63 867.903,604.13 859.5,604.5C 858.432,603.566 857.099,603.232 855.5,603.5 Z"/></g>
<g><path style="opacity:1" fill="#fad131" d="M 436.5,554.5 C 430.491,554.334 424.491,554.501 418.5,555C 419.737,555.232 420.737,555.732 421.5,556.5C 420.5,556.5 419.5,556.5 418.5,556.5C 418.477,583.166 418.143,609.833 417.5,636.5C 416.497,612.526 416.164,585.86 416.5,556.5C 415.047,555.175 415.381,554.342 417.5,554C 424.014,553.18 430.347,553.347 436.5,554.5 Z"/></g>
<g><path style="opacity:1" fill="#f9dc5d" d="M 296.5,582.5 C 292.906,592.186 288.906,601.686 284.5,611C 294.517,611.832 304.517,611.666 314.5,610.5C 310.425,601.352 306.092,592.352 301.5,583.5C 302.097,583.265 302.43,582.765 302.5,582C 301.209,579.95 300.709,577.783 301,575.5C 306.488,586.991 312.155,598.325 318,609.5C 318.494,611.134 318.66,612.801 318.5,614.5C 306.167,614.5 293.833,614.5 281.5,614.5C 281.34,612.801 281.506,611.134 282,609.5C 286.983,598.197 291.983,586.864 297,575.5C 297.334,577.847 297.167,580.181 296.5,582.5 Z M 301.5,583.5 C 306.092,592.352 310.425,601.352 314.5,610.5C 304.517,611.666 294.517,611.832 284.5,611C 288.906,601.686 292.906,592.186 296.5,582.5C 298.639,577.223 300.306,577.557 301.5,583.5 Z"/></g>
<g><path style="opacity:1" fill="#faf475" d="M 889.5,613.5 C 890.5,613.5 891.5,613.5 892.5,613.5C 892.56,614.043 892.893,614.376 893.5,614.5C 894.498,605.859 894.831,597.192 894.5,588.5C 893.486,587.326 892.153,586.66 890.5,586.5C 891.932,584.353 893.765,584.02 896,585.5C 896.667,595.5 896.667,605.5 896,615.5C 894.274,616.576 892.441,616.743 890.5,616C 889.748,615.329 889.414,614.496 889.5,613.5 Z"/></g>
<g><path style="opacity:1" fill="#e8b338" d="M 199.5,614.5 C 197.731,612.603 195.398,611.436 192.5,611C 206.167,610.333 219.833,610.333 233.5,611C 227.69,611.644 224.357,614.811 223.5,620.5C 222.833,629.675 222.167,639.009 221.5,648.5C 215.102,651.266 208.436,653.1 201.5,654C 190.505,654.5 179.505,654.667 168.5,654.5C 152.427,653.431 138.927,647.097 128,635.5C 114.115,613.795 114.115,592.128 128,570.5C 144.002,553.678 163.669,546.345 187,548.5C 197.783,547.938 208.283,549.271 218.5,552.5C 219.665,559.811 219.831,567.144 219,574.5C 215.167,565.333 208.667,558.833 199.5,555C 176.552,546.961 158.385,552.795 145,572.5C 138.864,588.133 137.864,604.133 142,620.5C 150.321,643.751 166.821,653.918 191.5,651C 196.429,650.698 200.595,648.865 204,645.5C 204.667,636.167 204.667,626.833 204,617.5C 202.69,616.103 201.19,615.103 199.5,614.5 Z"/></g>
<g><path style="opacity:1" fill="#f9db5b" d="M 328.5,588.5 C 327.883,588.611 327.383,588.944 327,589.5C 320.123,575.523 313.623,561.523 307.5,547.5C 306.022,547.238 304.689,547.571 303.5,548.5C 290.108,577.282 277.274,606.282 265,635.5C 261.768,640.788 257.935,645.622 253.5,650C 251.257,651.136 248.924,651.97 246.5,652.5C 246.44,651.957 246.107,651.624 245.5,651.5C 244.614,652.325 244.281,653.325 244.5,654.5C 257.886,654.836 269.886,654.503 280.5,653.5C 278.611,652.678 276.611,651.845 274.5,651C 276.382,650.802 278.048,650.302 279.5,649.5C 282.776,650.122 284.109,652.122 283.5,655.5C 270.167,655.5 256.833,655.5 243.5,655.5C 243.34,653.801 243.506,652.134 244,650.5C 251.027,648.813 256.36,644.813 260,638.5C 274.225,607.817 288.059,576.983 301.5,546C 304.429,545.223 307.263,545.39 310,546.5C 316.454,560.404 322.62,574.404 328.5,588.5 Z"/></g>
<g><path style="opacity:1" fill="#f9ce5f" d="M 855.5,603.5 C 857.099,603.232 858.432,603.566 859.5,604.5C 858.17,610.463 857.504,616.796 857.5,623.5C 857.667,629.833 857.833,636.167 858,642.5C 858.422,644.426 859.589,645.426 861.5,645.5C 860.5,646.167 859.5,646.833 858.5,647.5C 857.21,646.942 856.377,645.942 856,644.5C 854.254,630.708 854.087,617.042 855.5,603.5 Z"/></g>
<g><path style="opacity:1" fill="#f9dd5b" d="M 323.5,651.5 C 321.952,651.821 321.285,652.821 321.5,654.5C 336.833,654.5 352.167,654.5 367.5,654.5C 367.715,652.821 367.048,651.821 365.5,651.5C 363.473,651.662 361.473,651.495 359.5,651C 356.403,648.609 354.237,645.776 353,642.5C 353.838,643.999 354.671,644.332 355.5,643.5C 358.676,646.926 362.676,649.093 367.5,650C 368.406,651.699 368.739,653.533 368.5,655.5C 352.167,655.5 335.833,655.5 319.5,655.5C 319.215,653.712 319.548,652.045 320.5,650.5C 322.776,649.787 325.109,649.287 327.5,649C 328.894,648.044 329.561,646.711 329.5,645C 326.587,637.005 323.254,629.172 319.5,621.5C 306.5,620.167 293.5,620.167 280.5,621.5C 278.145,627.535 275.811,633.535 273.5,639.5C 272.113,641.877 271.279,644.543 271,647.5C 270.333,644.833 270.333,642.167 271,639.5C 273.188,632.064 275.354,624.731 277.5,617.5C 292.182,617.167 306.848,617.501 321.5,618.5C 325.774,627.337 329.44,636.337 332.5,645.5C 332.674,647.693 332.007,649.527 330.5,651C 328.19,651.497 325.857,651.663 323.5,651.5 Z"/></g>
<g><path style="opacity:1" fill="#f5cf56" d="M 225.5,619.5 C 225.82,630.082 225.487,640.582 224.5,651C 205.941,656.843 186.941,659.009 167.5,657.5C 175.323,656.671 183.323,656.171 191.5,656C 183.656,655.829 175.989,655.329 168.5,654.5C 179.505,654.667 190.505,654.5 201.5,654C 208.436,653.1 215.102,651.266 221.5,648.5C 222.167,639.009 222.833,629.675 223.5,620.5C 223.334,624.846 223.501,629.179 224,633.5C 224.142,628.074 224.642,623.407 225.5,619.5 Z"/></g>
<g><path style="opacity:1" fill="#fadc5e" d="M 590.5,604.5 C 599.223,615.586 607.723,626.92 616,638.5C 618.833,641.333 621.667,644.167 624.5,647C 627.648,648.605 630.981,649.605 634.5,650C 635.406,651.699 635.739,653.533 635.5,655.5C 625.494,655.666 615.494,655.5 605.5,655C 599.914,653.419 595.414,650.252 592,645.5C 583.419,631.765 573.585,619.099 562.5,607.5C 564.194,606.314 565.861,606.481 567.5,608C 577.442,620.053 586.775,632.553 595.5,645.5C 598.692,649.264 602.692,651.764 607.5,653C 616.167,653.667 624.833,653.667 633.5,653C 626.452,651.638 620.619,648.138 616,642.5C 607.101,631.56 598.768,620.227 591,608.5C 589.488,607.743 588.154,606.743 587,605.5C 586.946,603.453 587.946,603.453 590,605.5C 590.399,605.272 590.565,604.938 590.5,604.5 Z"/></g>
<g><path style="opacity:1" fill="#fac43d" d="M 720.5,625.5 C 721.822,628.768 722.489,632.435 722.5,636.5C 722.333,640.167 722.167,643.833 722,647.5C 721.617,648.056 721.117,648.389 720.5,648.5C 720.5,640.833 720.5,633.167 720.5,625.5 Z"/></g>
<g><path style="opacity:1" fill="#fae465" d="M 911.5,638.5 C 910.976,640.306 910.309,641.972 909.5,643.5C 909.19,642.262 908.69,642.262 908,643.5C 907.808,640.053 908.475,636.72 910,633.5C 910.198,635.382 910.698,637.048 911.5,638.5 Z"/></g>
<g><path style="opacity:1" fill="#f8d354" d="M 476.5,611.5 C 477.477,614.287 477.81,617.287 477.5,620.5C 473.625,636.864 463.292,646.198 446.5,648.5C 445.89,647.609 445.557,646.609 445.5,645.5C 464.507,642.194 474.84,630.861 476.5,611.5 Z"/></g>
<g><path style="opacity:1" fill="#fae45d" d="M 912.5,630.5 C 911.778,630.918 911.278,631.584 911,632.5C 910.667,631.5 910.333,630.5 910,629.5C 908.098,633.739 905.765,637.739 903,641.5C 901.062,644.106 898.562,645.939 895.5,647C 883.137,649.838 870.804,650.004 858.5,647.5C 859.5,646.833 860.5,646.167 861.5,645.5C 871.809,646.896 882.142,646.729 892.5,645C 896.468,644.036 899.635,641.869 902,638.5C 904.355,634.44 906.521,630.273 908.5,626C 913.015,625.006 914.349,626.506 912.5,630.5 Z"/></g>
<g><path style="opacity:1" fill="#fadd5f" d="M 794.5,549.5 C 794.5,550.167 794.5,550.833 794.5,551.5C 779.702,547.327 764.702,546.494 749.5,549C 731.401,555.018 723.901,567.518 727,586.5C 727.274,589.715 728.607,592.381 731,594.5C 736.906,599.54 743.406,603.706 750.5,607C 760.261,609.546 769.594,613.212 778.5,618C 781.04,620.205 783.207,622.705 785,625.5C 787.378,637.585 782.878,645.751 771.5,650C 748.226,654.043 732.559,645.209 724.5,623.5C 723.335,631.479 723.168,639.479 724,647.5C 727.523,649.901 731.356,651.734 735.5,653C 746.059,655.312 756.725,655.979 767.5,655C 780.586,654.291 790.92,648.625 798.5,638C 804.68,623.371 802.014,610.704 790.5,600C 776.386,594.52 762.386,588.853 748.5,583C 742.113,577.74 740.279,571.24 743,563.5C 743.232,564.737 743.732,565.737 744.5,566.5C 743.261,571.94 744.928,576.44 749.5,580C 763.302,586.381 777.302,592.381 791.5,598C 803.048,607.188 806.881,619.022 803,633.5C 797.921,647.241 788.088,655.074 773.5,657C 755.95,659.186 738.95,657.186 722.5,651C 721.619,650.292 720.953,649.458 720.5,648.5C 721.117,648.389 721.617,648.056 722,647.5C 722.167,643.833 722.333,640.167 722.5,636.5C 722.489,632.435 721.822,628.768 720.5,625.5C 720.083,620.932 722.083,619.432 726.5,621C 733.77,642.808 748.77,651.474 771.5,647C 784.988,639.93 786.655,630.93 776.5,620C 763.085,614.528 749.752,608.862 736.5,603C 724.689,595.249 720.522,584.415 724,570.5C 727.682,556.82 736.515,548.653 750.5,546C 765.474,543.771 780.14,544.937 794.5,549.5 Z"/></g>
<g><path style="opacity:1" fill="#f9f784" d="M 246.5,652.5 C 257.654,653.495 268.988,653.828 280.5,653.5C 269.886,654.503 257.886,654.836 244.5,654.5C 244.281,653.325 244.614,652.325 245.5,651.5C 246.107,651.624 246.44,651.957 246.5,652.5 Z"/></g>
<g><path style="opacity:1" fill="#faf986" d="M 323.5,651.5 C 323.389,652.117 323.056,652.617 322.5,653C 337.167,653.667 351.833,653.667 366.5,653C 365.944,652.617 365.611,652.117 365.5,651.5C 367.048,651.821 367.715,652.821 367.5,654.5C 352.167,654.5 336.833,654.5 321.5,654.5C 321.285,652.821 321.952,651.821 323.5,651.5 Z"/></g>
<g><path style="opacity:1" fill="#f9f785" d="M 523.5,653.5 C 538.676,653.829 553.676,653.496 568.5,652.5C 568.56,651.957 568.893,651.624 569.5,651.5C 570.386,652.325 570.719,653.325 570.5,654.5C 553.833,654.5 537.167,654.5 520.5,654.5C 521.169,651.284 522.169,650.951 523.5,653.5 Z"/></g>
<g><path style="opacity:1" fill="#faf985" d="M 905.5,650.5 C 906.434,651.568 906.768,652.901 906.5,654.5C 877.5,654.5 848.5,654.5 819.5,654.5C 819.263,653.209 819.596,652.209 820.5,651.5C 821.791,651.263 822.791,651.596 823.5,652.5C 850.092,653.499 877.426,653.833 905.5,653.5C 905.5,652.5 905.5,651.5 905.5,650.5 Z"/></g>
<g><path style="opacity:1" fill="#f9dd60" d="M 501.5,618.5 C 493.444,639.712 478.111,651.878 455.5,655C 430.169,655.5 404.836,655.667 379.5,655.5C 379.215,653.712 379.548,652.045 380.5,650.5C 384.991,649.919 388.991,648.252 392.5,645.5C 393.133,645.88 393.8,646.213 394.5,646.5C 391.898,650.304 388.232,652.304 383.5,652.5C 383.44,651.957 383.107,651.624 382.5,651.5C 381.713,652.242 381.047,653.075 380.5,654C 405.21,654.824 428.543,654.658 450.5,653.5C 457.363,651.677 464.363,649.844 471.5,648C 486.104,640.728 495.604,629.228 500,613.5C 500.198,615.382 500.698,617.048 501.5,618.5 Z"/></g>
<g><path style="opacity:1" fill="#faf986" d="M 383.5,652.5 C 405.091,653.499 427.425,653.833 450.5,653.5C 428.543,654.658 405.21,654.824 380.5,654C 381.047,653.075 381.713,652.242 382.5,651.5C 383.107,651.624 383.44,651.957 383.5,652.5 Z"/></g>
<g><path style="opacity:1" fill="#f9df62" d="M 556.5,645.5 C 557.815,646.476 559.148,647.476 560.5,648.5C 561.107,648.376 561.44,648.043 561.5,647.5C 564.278,648.968 567.278,649.801 570.5,650C 571.406,651.699 571.739,653.533 571.5,655.5C 554.325,655.83 537.325,655.497 520.5,654.5C 537.167,654.5 553.833,654.5 570.5,654.5C 570.719,653.325 570.386,652.325 569.5,651.5C 568.893,651.624 568.56,651.957 568.5,652.5C 562.861,652.69 558.861,650.356 556.5,645.5 Z"/></g>
<g><path style="opacity:1" fill="#fae064" d="M 689.5,644.5 C 692.514,648.17 696.514,650.003 701.5,650C 702.406,651.699 702.739,653.533 702.5,655.5C 685.5,655.5 668.5,655.5 651.5,655.5C 651.261,653.533 651.594,651.699 652.5,650C 654.92,649.71 657.254,649.21 659.5,648.5C 659.735,649.097 660.235,649.43 661,649.5C 662.731,648.259 664.564,647.259 666.5,646.5C 664.007,650.578 660.34,652.244 655.5,651.5C 654.5,651.5 653.5,651.5 652.5,651.5C 652.5,652.5 652.5,653.5 652.5,654.5C 668.009,654.83 683.342,654.496 698.5,653.5C 695.818,652.229 692.652,650.563 689,648.5C 687.85,646.246 687.516,643.913 688,641.5C 688.232,642.737 688.732,643.737 689.5,644.5 Z"/></g>
<g><path style="opacity:1" fill="#f9f989" d="M 655.5,651.5 C 655.389,652.117 655.056,652.617 654.5,653C 669.163,653.5 683.83,653.667 698.5,653.5C 683.342,654.496 668.009,654.83 652.5,654.5C 652.5,653.5 652.5,652.5 652.5,651.5C 653.5,651.5 654.5,651.5 655.5,651.5 Z"/></g>
<g><path style="opacity:1" fill="#f9df63" d="M 908.5,650.5 C 907.699,652.042 907.366,653.708 907.5,655.5C 877.995,655.831 848.662,655.498 819.5,654.5C 848.5,654.5 877.5,654.5 906.5,654.5C 906.768,652.901 906.434,651.568 905.5,650.5C 906.535,644.018 907.535,644.018 908.5,650.5 Z"/></g>
<g><path style="opacity:1" fill="#f5c350" d="M 423.5,710.5 C 433.325,709.342 443.325,709.175 453.5,710C 454.811,712.274 454.811,714.44 453.5,716.5C 453.739,714.533 453.406,712.699 452.5,711C 442.839,710.5 433.172,710.334 423.5,710.5 Z"/></g>
<g><path style="opacity:1" fill="#f8d556" d="M 775.5,743.5 C 774.833,734.833 774.167,726.167 773.5,717.5C 773.5,716.167 773.5,714.833 773.5,713.5C 777.226,713.823 780.893,713.489 784.5,712.5C 775.833,711.167 767.167,711.167 758.5,712.5C 762.107,713.489 765.774,713.823 769.5,713.5C 769.5,714.5 769.5,715.5 769.5,716.5C 768.833,725.5 768.167,734.5 767.5,743.5C 767.5,734.5 767.5,725.5 767.5,716.5C 763.818,716.665 760.152,716.499 756.5,716C 755.409,713.936 755.242,711.769 756,709.5C 766.333,708.167 776.667,708.167 787,709.5C 787.758,711.769 787.591,713.936 786.5,716C 782.848,716.499 779.182,716.665 775.5,716.5C 775.5,725.5 775.5,734.5 775.5,743.5 Z"/></g>
<g><path style="opacity:1" fill="#f9d863" d="M 344.5,717.5 C 344.44,716.957 344.107,716.624 343.5,716.5C 342.679,719.447 342.179,722.447 342,725.5C 341.176,722.118 341.343,718.784 342.5,715.5C 348.478,714.872 354.478,714.206 360.5,713.5C 353.197,712.503 345.863,712.169 338.5,712.5C 339.66,710.797 338.993,710.131 336.5,710.5C 336.828,722.345 336.495,734.012 335.5,745.5C 335.5,733.5 335.5,721.5 335.5,709.5C 344.506,709.334 353.506,709.5 362.5,710C 363.833,712.333 363.833,714.667 362.5,717C 356.509,717.499 350.509,717.666 344.5,717.5 Z"/></g>
<g><path style="opacity:1" fill="#f9dd5f" d="M 288.5,744.5 C 289.117,744.389 289.617,744.056 290,743.5C 290.167,738.333 290.333,733.167 290.5,728C 290.495,722.454 289.828,717.288 288.5,712.5C 288.414,711.504 288.748,710.671 289.5,710C 296.167,709.333 302.833,709.333 309.5,710C 317.754,713.005 320.921,718.838 319,727.5C 317.131,732.351 313.631,735.184 308.5,736C 304.848,736.499 301.182,736.665 297.5,736.5C 297.5,739.833 297.5,743.167 297.5,746.5C 294.813,746.664 292.146,746.497 289.5,746C 288.944,745.617 288.611,745.117 288.5,744.5 Z M 297.5,716.5 C 301.973,716.327 306.14,717.327 310,719.5C 311.12,722.999 310.287,725.833 307.5,728C 304.183,728.498 300.85,728.665 297.5,728.5C 297.5,724.5 297.5,720.5 297.5,716.5 Z"/></g>
<g><path style="opacity:1" fill="#e9b23c" d="M 773.5,717.5 C 773.5,726.167 773.5,734.833 773.5,743.5C 772.167,743.5 770.833,743.5 769.5,743.5C 769.5,734.5 769.5,725.5 769.5,716.5C 769.5,715.5 769.5,714.5 769.5,713.5C 765.774,713.823 762.107,713.489 758.5,712.5C 767.167,711.167 775.833,711.167 784.5,712.5C 780.893,713.489 777.226,713.823 773.5,713.5C 773.5,714.833 773.5,716.167 773.5,717.5 Z"/></g>
<g><path style="opacity:1" fill="#faed6a" d="M 707.5,745.5 C 707.334,738.492 707.5,731.492 708,724.5C 708.172,731.013 708.672,737.347 709.5,743.5C 710.209,744.404 711.209,744.737 712.5,744.5C 712.5,733.5 712.5,722.5 712.5,711.5C 709.144,710.862 707.144,712.196 706.5,715.5C 705.601,714.006 705.935,712.506 707.5,711C 709.473,710.505 711.473,710.338 713.5,710.5C 713.5,722.167 713.5,733.833 713.5,745.5C 711.5,745.5 709.5,745.5 707.5,745.5 Z"/></g>
<g><path style="opacity:1" fill="#fadf67" d="M 740.5,710.5 C 741.833,722.167 741.833,733.833 740.5,745.5C 738.5,745.5 736.5,745.5 734.5,745.5C 734.5,733.833 734.5,722.167 734.5,710.5C 736.5,710.5 738.5,710.5 740.5,710.5 Z"/></g>
<g><path style="opacity:1" fill="#e6b336" d="M 273.5,724.5 C 273.884,728.489 273.217,732.155 271.5,735.5C 271.66,733.801 271.494,732.134 271,730.5C 267.099,741.718 259.265,746.218 247.5,744C 238.649,740.478 234.816,733.978 236,724.5C 237.587,719.171 240.754,715.004 245.5,712C 260.528,708.757 269.361,714.59 272,729.5C 272.198,727.618 272.698,725.952 273.5,724.5 Z M 250.5,715.5 C 261.521,716.019 266.021,721.685 264,732.5C 259.872,739.489 254.039,741.322 246.5,738C 238.938,728.868 240.272,721.368 250.5,715.5 Z"/></g>
<g><path style="opacity:1" fill="#f9d859" d="M 247.5,713.5 C 261.943,711.734 268.443,718.067 267,732.5C 262.799,742.292 255.633,745.125 245.5,741C 238.931,734.055 237.764,726.222 242,717.5C 243.98,716.251 245.813,714.918 247.5,713.5 Z M 250.5,715.5 C 240.272,721.368 238.938,728.868 246.5,738C 254.039,741.322 259.872,739.489 264,732.5C 266.021,721.685 261.521,716.019 250.5,715.5 Z"/></g>
<g><path style="opacity:1" fill="#e6b436" d="M 879.5,719.5 C 880.222,719.918 880.722,720.584 881,721.5C 881.499,725.486 881.666,729.486 881.5,733.5C 880.679,730.359 880.179,727.025 880,723.5C 880.479,733.909 875.979,740.909 866.5,744.5C 860.5,744.5 854.5,744.5 848.5,744.5C 848.168,735.475 848.502,726.475 849.5,717.5C 850.257,725.844 850.924,734.178 851.5,742.5C 858.913,743.311 865.913,742.145 872.5,739C 877.176,730.784 876.509,723.284 870.5,716.5C 863.277,714.219 855.943,713.886 848.5,715.5C 848.5,714.5 848.5,713.5 848.5,712.5C 854.842,712.334 861.175,712.5 867.5,713C 872.525,714.689 876.359,717.856 879,722.5C 879.483,721.552 879.649,720.552 879.5,719.5 Z M 853.5,717.5 C 859.434,716.889 865.1,717.722 870.5,720C 874.7,725.933 874.367,731.6 869.5,737C 864.439,739.259 859.105,740.092 853.5,739.5C 853.5,732.167 853.5,724.833 853.5,717.5 Z"/></g>
<g><path style="opacity:1" fill="#fae366" d="M 423.5,710.5 C 433.172,710.334 442.839,710.5 452.5,711C 453.406,712.699 453.739,714.533 453.5,716.5C 450.713,717.477 447.713,717.81 444.5,717.5C 443.909,716.849 443.243,716.182 442.5,715.5C 445.428,714.516 448.428,714.183 451.5,714.5C 451.5,713.5 451.5,712.5 451.5,711.5C 442.648,711.85 433.648,711.85 424.5,711.5C 424.5,712.5 424.5,713.5 424.5,714.5C 428.5,714.5 432.5,714.5 436.5,714.5C 436.5,724.5 436.5,734.5 436.5,744.5C 437.833,744.5 439.167,744.5 440.5,744.5C 440.453,735.222 440.453,726.222 440.5,717.5C 441.167,726.991 441.833,736.325 442.5,745.5C 441.828,746.267 440.995,746.934 440,747.5C 439,746.167 438,746.167 437,747.5C 435.5,746.667 434.333,745.5 433.5,744C 434.484,735.251 434.817,726.418 434.5,717.5C 430.818,717.665 427.152,717.499 423.5,717C 422.189,714.726 422.189,712.56 423.5,710.5 Z"/></g>
<g><path style="opacity:1" fill="#f8ce57" d="M 495.5,710.5 C 503.99,709.343 512.657,709.176 521.5,710C 522.833,712.333 522.833,714.667 521.5,717C 515.509,717.499 509.509,717.666 503.5,717.5C 503.5,719.5 503.5,721.5 503.5,723.5C 506.167,723.5 508.833,723.5 511.5,723.5C 509.143,725.098 506.477,726.098 503.5,726.5C 502.5,726.5 501.5,726.5 500.5,726.5C 500.143,722.407 500.143,718.407 500.5,714.5C 506.807,713.669 513.141,713.169 519.5,713C 511.754,712.202 504.087,712.369 496.5,713.5C 498.305,711.803 500.639,710.97 503.5,711C 500.854,710.503 498.187,710.336 495.5,710.5 Z"/></g>
<g><path style="opacity:1" fill="#ecbc45" d="M 678.5,708.5 C 677.817,710.176 676.483,710.843 674.5,710.5C 674.5,722.167 674.5,733.833 674.5,745.5C 676.5,745.5 678.5,745.5 680.5,745.5C 678.393,746.468 676.059,746.802 673.5,746.5C 673.333,734.162 673.5,721.829 674,709.5C 675.356,708.62 676.856,708.286 678.5,708.5 Z"/></g>
<g><path style="opacity:1" fill="#e8b539" d="M 681.5,713.5 C 684.227,719.682 687.393,725.682 691,731.5C 691.741,732.641 692.575,732.641 693.5,731.5C 694.192,732.025 694.692,732.692 695,733.5C 698.591,727.312 702.424,721.312 706.5,715.5C 707.144,712.196 709.144,710.862 712.5,711.5C 712.5,722.5 712.5,733.5 712.5,744.5C 711.209,744.737 710.209,744.404 709.5,743.5C 709.666,736.492 709.5,729.492 709,722.5C 708.667,722.833 708.333,723.167 708,723.5C 707.333,722.167 706.667,720.833 706,719.5C 701.988,726.195 697.988,732.862 694,739.5C 689.269,733.354 685.269,726.687 682,719.5C 681.302,720.691 680.469,721.691 679.5,722.5C 679.5,729.833 679.5,737.167 679.5,744.5C 678.167,744.5 676.833,744.5 675.5,744.5C 675.5,733.5 675.5,722.5 675.5,711.5C 677.886,711.259 679.886,711.925 681.5,713.5 Z"/></g>
<g><path style="opacity:1" fill="#fac043" d="M 800.5,710.5 C 801.117,710.611 801.617,710.944 802,711.5C 802.667,722.167 802.667,732.833 802,743.5C 801.617,744.056 801.117,744.389 800.5,744.5C 800.5,733.167 800.5,721.833 800.5,710.5 Z"/></g>
<g><path style="opacity:1" fill="#e7b43d" d="M 814.5,716.5 C 812.833,716.5 811.167,716.5 809.5,716.5C 809.5,718.5 809.5,720.5 809.5,722.5C 808.691,720.708 808.191,718.708 808,716.5C 807.502,719.817 807.335,723.15 807.5,726.5C 813.206,726.171 818.872,726.505 824.5,727.5C 819.121,728.156 813.787,728.989 808.5,730C 809.056,730.383 809.389,730.883 809.5,731.5C 809.5,733.833 809.5,736.167 809.5,738.5C 808.49,737.679 807.99,735.346 808,731.5C 807.502,734.817 807.335,738.15 807.5,741.5C 813.833,741.5 820.167,741.5 826.5,741.5C 826.5,742.5 826.5,743.5 826.5,744.5C 818.833,744.5 811.167,744.5 803.5,744.5C 803.5,733.5 803.5,722.5 803.5,711.5C 811.196,711.169 818.862,711.503 826.5,712.5C 820.862,713.33 815.196,713.83 809.5,714C 808.833,714.333 808.167,714.667 807.5,715C 810.036,715.186 812.369,715.686 814.5,716.5 Z"/></g>
<g><path style="opacity:1" fill="#f8b449" d="M 288.5,712.5 C 289.828,717.288 290.495,722.454 290.5,728C 290.333,733.167 290.167,738.333 290,743.5C 289.617,744.056 289.117,744.389 288.5,744.5C 288.5,733.833 288.5,723.167 288.5,712.5 Z"/></g>
<g><path style="opacity:1" fill="#f7d85a" d="M 475.5,746.5 C 473.735,745.539 471.735,745.205 469.5,745.5C 469.667,734.828 469.5,724.161 469,713.5C 468.617,712.944 468.117,712.611 467.5,712.5C 467.414,711.504 467.748,710.671 468.5,710C 471.099,709.231 473.599,709.398 476,710.5C 476.826,722.674 476.66,734.674 475.5,746.5 Z"/></g>
<g><path style="opacity:1" fill="#fae665" d="M 647.5,708.5 C 650.119,708.232 652.619,708.565 655,709.5C 655.667,721.5 655.667,733.5 655,745.5C 652.333,746.833 649.667,746.833 647,745.5C 646.207,733.121 646.373,720.788 647.5,708.5 Z"/></g>
<g><path style="opacity:1" fill="#e5b53f" d="M 649.5,711.5 C 650.833,711.5 652.167,711.5 653.5,711.5C 653.5,722.5 653.5,733.5 653.5,744.5C 652.167,744.5 650.833,744.5 649.5,744.5C 649.5,733.5 649.5,722.5 649.5,711.5 Z"/></g>
<g><path style="opacity:1" fill="#e2b036" d="M 735.5,711.5 C 736.5,711.5 737.5,711.5 738.5,711.5C 738.5,722.5 738.5,733.5 738.5,744.5C 737.5,744.5 736.5,744.5 735.5,744.5C 735.5,733.5 735.5,722.5 735.5,711.5 Z"/></g>
<g><path style="opacity:1" fill="#f9c23d" d="M 740.5,710.5 C 738.5,710.5 736.5,710.5 734.5,710.5C 734.5,722.167 734.5,733.833 734.5,745.5C 736.5,745.5 738.5,745.5 740.5,745.5C 738.105,746.814 735.605,746.814 733,745.5C 732.333,733.833 732.333,722.167 733,710.5C 735.605,709.186 738.105,709.186 740.5,710.5 Z"/></g>
<g><path style="opacity:1" fill="#f9db5f" d="M 556.5,739.5 C 557.496,739.586 558.329,739.252 559,738.5C 559.333,737.167 559.667,735.833 560,734.5C 560.965,737.363 560.298,739.696 558,741.5C 552.121,743.316 546.621,742.65 541.5,739.5C 541.167,740 540.833,740.5 540.5,741C 541.444,742.477 542.777,743.477 544.5,744C 549.167,744.667 553.833,744.667 558.5,744C 566.008,738.994 566.341,733.66 559.5,728C 554.556,727.313 549.889,725.813 545.5,723.5C 543.284,718.669 544.617,715.502 549.5,714C 553.664,713.187 557.664,713.687 561.5,715.5C 561.833,715.167 562.167,714.833 562.5,714.5C 557.165,711.101 551.499,710.601 545.5,713C 538.632,718.515 538.965,723.515 546.5,728C 550.5,729 554.5,730 558.5,731C 559.451,731.718 559.617,732.551 559,733.5C 557.989,732.663 556.822,732.33 555.5,732.5C 549.19,732.01 543.69,729.676 539,725.5C 536.757,718.151 539.257,712.984 546.5,710C 552.957,708.303 559.124,709.136 565,712.5C 565.825,714.701 565.325,716.534 563.5,718C 559.988,717.95 556.488,717.45 553,716.5C 548.457,716.132 546.957,717.965 548.5,722C 553.775,723.147 558.775,724.98 563.5,727.5C 568.767,732.96 568.767,738.46 563.5,744C 553.827,749.232 544.827,748.399 536.5,741.5C 538.564,735.87 541.898,735.037 546.5,739C 549.817,739.498 553.15,739.665 556.5,739.5 Z"/></g>
<g><path style="opacity:1" fill="#f8d351" d="M 614.5,710.5 C 613.833,719.675 613.167,729.009 612.5,738.5C 611.502,729.525 611.168,720.525 611.5,711.5C 610.5,711.5 609.5,711.5 608.5,711.5C 608.5,722.167 608.5,732.833 608.5,743.5C 615.532,743.83 622.532,743.497 629.5,742.5C 624.533,741.671 619.533,741.171 614.5,741C 618.573,739.971 622.573,739.138 626.5,738.5C 633.158,737.344 635.158,739.844 632.5,746C 623.588,746.816 614.755,746.65 606,745.5C 605.333,733.833 605.333,722.167 606,710.5C 607.009,709.342 608.342,708.675 610,708.5C 612.008,708.307 613.508,708.974 614.5,710.5 Z"/></g>
<g><path style="opacity:1" fill="#facb52" d="M 467.5,712.5 C 468.117,712.611 468.617,712.944 469,713.5C 469.5,724.161 469.667,734.828 469.5,745.5C 471.735,745.205 473.735,745.539 475.5,746.5C 472.881,746.768 470.381,746.435 468,745.5C 467.5,734.505 467.333,723.505 467.5,712.5 Z"/></g>
<g><path style="opacity:1" fill="#f9dc61" d="M 809.5,722.5 C 814.651,723.327 819.984,723.827 825.5,724C 826.833,726.333 826.833,728.667 825.5,731C 820.177,731.499 814.844,731.666 809.5,731.5C 809.389,730.883 809.056,730.383 808.5,730C 813.787,728.989 819.121,728.156 824.5,727.5C 818.872,726.505 813.206,726.171 807.5,726.5C 807.335,723.15 807.502,719.817 808,716.5C 808.191,718.708 808.691,720.708 809.5,722.5 Z"/></g>
<g><path style="opacity:1" fill="#e7b237" d="M 291.5,712.5 C 293.604,712.201 295.604,712.534 297.5,713.5C 296.758,714.287 295.925,714.953 295,715.5C 294.219,720.554 294.386,725.554 295.5,730.5C 300.201,731.731 304.868,731.564 309.5,730C 313.857,726.003 314.523,721.503 311.5,716.5C 307.39,714.555 303.056,713.389 298.5,713C 312.571,710.403 318.071,715.903 315,729.5C 309.192,733.605 302.692,735.605 295.5,735.5C 294.833,738.5 294.167,741.5 293.5,744.5C 292.914,744.291 292.414,743.957 292,743.5C 291.5,733.172 291.334,722.839 291.5,712.5 Z M 297.5,716.5 C 297.5,720.5 297.5,724.5 297.5,728.5C 300.85,728.665 304.183,728.498 307.5,728C 310.287,725.833 311.12,722.999 310,719.5C 306.14,717.327 301.973,716.327 297.5,716.5 Z"/></g>
<g><path style="opacity:1" fill="#fadc5f" d="M 709.5,743.5 C 708.672,737.347 708.172,731.013 708,724.5C 707.5,731.492 707.334,738.492 707.5,745.5C 706.672,739.013 706.172,732.346 706,725.5C 703.667,729.833 701.333,734.167 699,738.5C 696.716,742.711 693.716,743.377 690,740.5C 687.573,735.31 684.906,730.31 682,725.5C 681.828,732.346 681.328,739.013 680.5,745.5C 680.825,737.648 680.492,729.982 679.5,722.5C 680.469,721.691 681.302,720.691 682,719.5C 685.269,726.687 689.269,733.354 694,739.5C 697.988,732.862 701.988,726.195 706,719.5C 706.667,720.833 707.333,722.167 708,723.5C 708.333,723.167 708.667,722.833 709,722.5C 709.5,729.492 709.666,736.492 709.5,743.5 Z"/></g>
<g><path style="opacity:1" fill="#fade66" d="M 404.5,733.5 C 404.082,732.778 403.416,732.278 402.5,732C 403.729,730.471 405.229,729.304 407,728.5C 407.167,726.667 407.333,724.833 407.5,723C 408.205,717.033 405.538,713.7 399.5,713C 393.843,712.501 388.176,712.334 382.5,712.5C 382.5,720.167 382.5,727.833 382.5,735.5C 382.153,727.612 381.153,719.946 379.5,712.5C 379.414,711.504 379.748,710.671 380.5,710C 389.01,708.886 397.344,709.552 405.5,712C 410.607,716.998 411.773,722.832 409,729.5C 407.629,731.041 406.129,732.375 404.5,733.5 Z M 390.5,717.5 C 398.977,715.156 402.477,718.156 401,726.5C 397.078,728.312 392.911,728.979 388.5,728.5C 388.5,727.167 388.5,725.833 388.5,724.5C 387.99,721.612 388.656,719.279 390.5,717.5 Z"/></g>
<g><path style="opacity:1" fill="#ecb93b" d="M 444.5,717.5 C 442.528,726.44 441.861,735.773 442.5,745.5C 441.833,736.325 441.167,726.991 440.5,717.5C 440.453,726.222 440.453,735.222 440.5,744.5C 439.167,744.5 437.833,744.5 436.5,744.5C 436.5,734.5 436.5,724.5 436.5,714.5C 432.5,714.5 428.5,714.5 424.5,714.5C 424.5,713.5 424.5,712.5 424.5,711.5C 433.648,711.85 442.648,711.85 451.5,711.5C 451.5,712.5 451.5,713.5 451.5,714.5C 448.428,714.183 445.428,714.516 442.5,715.5C 443.243,716.182 443.909,716.849 444.5,717.5 Z"/></g>
<g><path style="opacity:1" fill="#e7b035" d="M 470.5,711.5 C 471.5,711.5 472.5,711.5 473.5,711.5C 473.5,722.5 473.5,733.5 473.5,744.5C 472.5,744.5 471.5,744.5 470.5,744.5C 470.5,733.5 470.5,722.5 470.5,711.5 Z"/></g>
<g><path style="opacity:1" fill="#f9dd5f" d="M 814.5,716.5 C 812.369,715.686 810.036,715.186 807.5,715C 808.167,714.667 808.833,714.333 809.5,714C 815.196,713.83 820.862,713.33 826.5,712.5C 818.862,711.503 811.196,711.169 803.5,711.5C 803.5,722.5 803.5,733.5 803.5,744.5C 811.167,744.5 818.833,744.5 826.5,744.5C 826.5,743.5 826.5,742.5 826.5,741.5C 820.167,741.5 813.833,741.5 807.5,741.5C 807.335,738.15 807.502,734.817 808,731.5C 807.99,735.346 808.49,737.679 809.5,738.5C 816.078,739.46 822.745,739.793 829.5,739.5C 829.5,741.833 829.5,744.167 829.5,746.5C 820.161,746.666 810.827,746.5 801.5,746C 800.944,745.617 800.611,745.117 800.5,744.5C 801.117,744.389 801.617,744.056 802,743.5C 802.667,732.833 802.667,722.167 802,711.5C 801.617,710.944 801.117,710.611 800.5,710.5C 800.611,709.883 800.944,709.383 801.5,709C 810.167,708.333 818.833,708.333 827.5,709C 829.64,711.173 829.974,713.673 828.5,716.5C 823.833,716.5 819.167,716.5 814.5,716.5 Z"/></g>
<g><path style="opacity:1" fill="#f6dc62" d="M 347.5,724.5 C 351.846,724.334 356.179,724.501 360.5,725C 361.38,726.356 361.714,727.856 361.5,729.5C 360.883,729.389 360.383,729.056 360,728.5C 354.583,729.309 349.083,729.809 343.5,730C 344.416,730.278 345.082,730.778 345.5,731.5C 343.952,731.821 343.285,732.821 343.5,734.5C 342.698,735.952 342.198,737.618 342,739.5C 341.501,735.848 341.335,732.182 341.5,728.5C 347.176,728.666 352.843,728.499 358.5,728C 358.833,727.667 359.167,727.333 359.5,727C 354.167,726.667 348.833,726.333 343.5,726C 345.058,725.79 346.391,725.29 347.5,724.5 Z"/></g>
<g><path style="opacity:1" fill="#f5c340" d="M 161.5,709.5 C 155.69,710.49 149.69,710.823 143.5,710.5C 143.5,722.167 143.5,733.833 143.5,745.5C 145.5,745.5 147.5,745.5 149.5,745.5C 147.105,746.814 144.605,746.814 142,745.5C 141.333,733.833 141.333,722.167 142,710.5C 148.41,709.522 154.91,709.189 161.5,709.5 Z"/></g>
<g><path style="opacity:1" fill="#faf987" d="M 361.5,729.5 C 361.389,730.117 361.056,730.617 360.5,731C 355.511,731.499 350.511,731.666 345.5,731.5C 345.082,730.778 344.416,730.278 343.5,730C 349.083,729.809 354.583,729.309 360,728.5C 360.383,729.056 360.883,729.389 361.5,729.5 Z"/></g>
<g><path style="opacity:1" fill="#f6cf4f" d="M 379.5,712.5 C 381.153,719.946 382.153,727.612 382.5,735.5C 382.5,738.5 382.5,741.5 382.5,744.5C 383.5,744.5 384.5,744.5 385.5,744.5C 385.163,740.692 385.663,737.026 387,733.5C 390.066,733.17 393.233,733.67 396.5,735C 395.584,735.278 394.918,735.778 394.5,736.5C 392.5,736.5 390.5,736.5 388.5,736.5C 388.82,739.898 388.487,743.232 387.5,746.5C 384.955,747.25 382.455,746.916 380,745.5C 379.5,734.505 379.333,723.505 379.5,712.5 Z"/></g>
<g><path style="opacity:1" fill="#faf27b" d="M 511.5,723.5 C 514.249,723.274 516.916,723.607 519.5,724.5C 520.641,726.421 520.808,728.421 520,730.5C 514.593,731.473 509.093,731.807 503.5,731.5C 508.056,729.558 513.056,728.892 518.5,729.5C 518.737,728.209 518.404,727.209 517.5,726.5C 512.833,726.5 508.167,726.5 503.5,726.5C 506.477,726.098 509.143,725.098 511.5,723.5 Z"/></g>
<g><path style="opacity:1" fill="#fadf56" d="M 707.5,745.5 C 709.5,745.5 711.5,745.5 713.5,745.5C 713.5,733.833 713.5,722.167 713.5,710.5C 711.473,710.338 709.473,710.505 707.5,711C 705.935,712.506 705.601,714.006 706.5,715.5C 702.424,721.312 698.591,727.312 695,733.5C 694.692,732.692 694.192,732.025 693.5,731.5C 692.575,732.641 691.741,732.641 691,731.5C 687.393,725.682 684.227,719.682 681.5,713.5C 681.328,712.508 681.662,711.842 682.5,711.5C 686.156,717.472 689.822,723.472 693.5,729.5C 698.192,723.295 702.526,716.795 706.5,710C 709.429,709.223 712.263,709.39 715,710.5C 715.667,722.167 715.667,733.833 715,745.5C 712.395,746.814 709.895,746.814 707.5,745.5 Z"/></g>
<g><path style="opacity:1" fill="#e5b432" d="M 503.5,726.5 C 508.167,726.5 512.833,726.5 517.5,726.5C 512.55,728.215 507.216,729.215 501.5,729.5C 499.534,732.549 499.034,735.882 500,739.5C 500.5,740.667 501.333,741.5 502.5,742C 508.491,742.499 514.491,742.666 520.5,742.5C 512.903,744.467 504.903,745.134 496.5,744.5C 496.5,734.167 496.5,723.833 496.5,713.5C 504.087,712.369 511.754,712.202 519.5,713C 513.141,713.169 506.807,713.669 500.5,714.5C 500.143,718.407 500.143,722.407 500.5,726.5C 501.5,726.5 502.5,726.5 503.5,726.5 Z"/></g>
<g><path style="opacity:1" fill="#e9b439" d="M 404.5,733.5 C 404.5,734.167 404.5,734.833 404.5,735.5C 403.577,734.697 402.577,734.53 401.5,735C 403.694,737.695 405.694,740.528 407.5,743.5C 407.167,743.833 406.833,744.167 406.5,744.5C 403.512,741.677 400.678,738.677 398,735.5C 397.536,736.094 397.369,736.761 397.5,737.5C 396.609,736.89 395.609,736.557 394.5,736.5C 394.918,735.778 395.584,735.278 396.5,735C 393.233,733.67 390.066,733.17 387,733.5C 385.663,737.026 385.163,740.692 385.5,744.5C 384.5,744.5 383.5,744.5 382.5,744.5C 382.5,741.5 382.5,738.5 382.5,735.5C 382.5,727.833 382.5,720.167 382.5,712.5C 388.176,712.334 393.843,712.501 399.5,713C 405.538,713.7 408.205,717.033 407.5,723C 407.333,724.833 407.167,726.667 407,728.5C 405.229,729.304 403.729,730.471 402.5,732C 403.416,732.278 404.082,732.778 404.5,733.5 Z M 390.5,717.5 C 398.977,715.156 402.477,718.156 401,726.5C 397.078,728.312 392.911,728.979 388.5,728.5C 388.5,727.167 388.5,725.833 388.5,724.5C 387.99,721.612 388.656,719.279 390.5,717.5 Z"/></g>
<g><path style="opacity:1" fill="#fada59" d="M 388.5,724.5 C 388.5,725.833 388.5,727.167 388.5,728.5C 392.911,728.979 397.078,728.312 401,726.5C 402.477,718.156 398.977,715.156 390.5,717.5C 389.909,716.849 389.243,716.182 388.5,715.5C 393.901,713.776 398.901,714.442 403.5,717.5C 405.559,723.088 404.226,727.588 399.5,731C 395.167,731.667 390.833,731.667 386.5,731C 385.2,726.55 385.2,722.05 386.5,717.5C 387.168,719.969 387.835,722.302 388.5,724.5 Z M 390.5,717.5 C 398.977,715.156 402.477,718.156 401,726.5C 397.078,728.312 392.911,728.979 388.5,728.5C 388.5,727.167 388.5,725.833 388.5,724.5C 387.99,721.612 388.656,719.279 390.5,717.5 Z"/></g>
<g><path style="opacity:1" fill="#ebb93b" d="M 214.5,731.5 C 214.047,732.458 213.381,733.292 212.5,734C 213.252,734.671 213.586,735.504 213.5,736.5C 212.399,735.2 211.066,734.7 209.5,735C 212.317,737.638 214.65,740.638 216.5,744C 216,744.167 215.5,744.333 215,744.5C 211.273,740.877 207.44,737.377 203.5,734C 201.5,733.333 199.5,733.333 197.5,734C 198.598,734.77 198.598,735.603 197.5,736.5C 196.523,739.287 196.19,742.287 196.5,745.5C 195.679,742.359 195.179,739.025 195,735.5C 194.502,738.482 194.335,741.482 194.5,744.5C 193.167,744.5 191.833,744.5 190.5,744.5C 190.5,733.5 190.5,722.5 190.5,711.5C 198.001,711.14 205.335,711.973 212.5,714C 218.175,720.211 217.841,725.878 211.5,731C 212.448,731.483 213.448,731.649 214.5,731.5 Z M 203.5,716.5 C 209.263,716.776 211.43,719.776 210,725.5C 209.097,726.701 207.931,727.535 206.5,728C 203.183,728.498 199.85,728.665 196.5,728.5C 196.5,726.167 196.5,723.833 196.5,721.5C 196.5,719.833 196.5,718.167 196.5,716.5C 198.833,716.5 201.167,716.5 203.5,716.5 Z"/></g>
<g><path style="opacity:1" fill="#e7b83c" d="M 338.5,712.5 C 345.863,712.169 353.197,712.503 360.5,713.5C 354.478,714.206 348.478,714.872 342.5,715.5C 341.343,718.784 341.176,722.118 342,725.5C 342.179,722.447 342.679,719.447 343.5,716.5C 344.107,716.624 344.44,716.957 344.5,717.5C 343.378,719.288 343.211,721.288 344,723.5C 345.011,724.337 346.178,724.67 347.5,724.5C 346.391,725.29 345.058,725.79 343.5,726C 348.833,726.333 354.167,726.667 359.5,727C 359.167,727.333 358.833,727.667 358.5,728C 352.843,728.499 347.176,728.666 341.5,728.5C 341.335,732.182 341.501,735.848 342,739.5C 342.198,737.618 342.698,735.952 343.5,734.5C 343.5,736.167 343.5,737.833 343.5,739.5C 350.175,739.334 356.842,739.5 363.5,740C 364.576,741.726 364.743,743.559 364,745.5C 355.919,746.482 347.752,746.816 339.5,746.5C 346.982,745.508 354.648,745.175 362.5,745.5C 362.5,743.833 362.5,742.167 362.5,740.5C 356.132,740.17 349.798,740.504 343.5,741.5C 349.5,742.167 355.5,742.833 361.5,743.5C 353.528,744.498 345.528,744.831 337.5,744.5C 337.172,733.654 337.506,722.987 338.5,712.5 Z"/></g>
<g><path style="opacity:1" fill="#fade60" d="M 161.5,709.5 C 172.742,714.629 175.075,722.462 168.5,733C 162.865,735.932 156.865,737.099 150.5,736.5C 150.81,739.713 150.477,742.713 149.5,745.5C 147.5,745.5 145.5,745.5 143.5,745.5C 143.5,733.833 143.5,722.167 143.5,710.5C 149.69,710.823 155.69,710.49 161.5,709.5 Z M 150.5,716.5 C 154.273,716.263 157.94,716.763 161.5,718C 164.247,721.343 164.08,724.51 161,727.5C 157.559,728.382 154.059,728.716 150.5,728.5C 150.5,724.5 150.5,720.5 150.5,716.5 Z"/></g>
<g><path style="opacity:1" fill="#e8b335" d="M 144.5,712.5 C 150.509,712.334 156.509,712.501 162.5,713C 168.689,715.864 170.856,720.697 169,727.5C 168.052,729.57 166.552,731.07 164.5,732C 159.663,733.013 154.83,733.846 150,734.5C 149.667,734.167 149.333,733.833 149,733.5C 147.663,737.026 147.163,740.692 147.5,744.5C 146.5,744.5 145.5,744.5 144.5,744.5C 144.5,733.833 144.5,723.167 144.5,712.5 Z M 150.5,716.5 C 150.5,720.5 150.5,724.5 150.5,728.5C 154.059,728.716 157.559,728.382 161,727.5C 164.08,724.51 164.247,721.343 161.5,718C 157.94,716.763 154.273,716.263 150.5,716.5 Z"/></g>
<g><path style="opacity:1" fill="#f9db5b" d="M 147.5,715.5 C 153.243,713.879 158.91,714.379 164.5,717C 167.822,723.363 166.156,728.03 159.5,731C 155.789,731.825 152.122,731.659 148.5,730.5C 147.559,725.254 147.226,720.254 147.5,715.5 Z M 150.5,716.5 C 150.5,720.5 150.5,724.5 150.5,728.5C 154.059,728.716 157.559,728.382 161,727.5C 164.08,724.51 164.247,721.343 161.5,718C 157.94,716.763 154.273,716.263 150.5,716.5 Z"/></g>
<g><path style="opacity:1" fill="#faf079" d="M 678.5,708.5 C 680.23,709.026 681.564,710.026 682.5,711.5C 681.662,711.842 681.328,712.508 681.5,713.5C 679.886,711.925 677.886,711.259 675.5,711.5C 675.5,722.5 675.5,733.5 675.5,744.5C 676.833,744.5 678.167,744.5 679.5,744.5C 679.5,737.167 679.5,729.833 679.5,722.5C 680.492,729.982 680.825,737.648 680.5,745.5C 678.5,745.5 676.5,745.5 674.5,745.5C 674.5,733.833 674.5,722.167 674.5,710.5C 676.483,710.843 677.817,710.176 678.5,708.5 Z"/></g>
<g><path style="opacity:1" fill="#faf071" d="M 495.5,710.5 C 498.187,710.336 500.854,710.503 503.5,711C 500.639,710.97 498.305,711.803 496.5,713.5C 496.5,723.833 496.5,734.167 496.5,744.5C 504.903,745.134 512.903,744.467 520.5,742.5C 515.015,741.673 509.348,741.173 503.5,741C 509.825,740.5 516.158,740.334 522.5,740.5C 523.807,742.223 523.807,744.057 522.5,746C 513.255,746.817 504.089,746.65 495,745.5C 494.174,733.659 494.341,721.993 495.5,710.5 Z"/></g>
<g><path style="opacity:1" fill="#f9d55a" d="M 879.5,719.5 C 879.649,720.552 879.483,721.552 879,722.5C 876.359,717.856 872.525,714.689 867.5,713C 861.175,712.5 854.842,712.334 848.5,712.5C 848.5,713.5 848.5,714.5 848.5,715.5C 855.943,713.886 863.277,714.219 870.5,716.5C 876.509,723.284 877.176,730.784 872.5,739C 865.913,742.145 858.913,743.311 851.5,742.5C 850.924,734.178 850.257,725.844 849.5,717.5C 848.502,726.475 848.168,735.475 848.5,744.5C 847.67,733.674 847.17,722.674 847,711.5C 846.5,722.828 846.333,734.162 846.5,745.5C 853.354,745.824 860.021,745.491 866.5,744.5C 875.979,740.909 880.479,733.909 880,723.5C 880.179,727.025 880.679,730.359 881.5,733.5C 880.149,739.02 876.816,742.853 871.5,745C 862.92,747.377 854.253,747.877 845.5,746.5C 845.5,734.167 845.5,721.833 845.5,709.5C 853.903,709.13 862.236,709.63 870.5,711C 874.679,712.681 877.679,715.515 879.5,719.5 Z M 853.5,717.5 C 853.5,724.833 853.5,732.167 853.5,739.5C 859.105,740.092 864.439,739.259 869.5,737C 874.367,731.6 874.7,725.933 870.5,720C 865.1,717.722 859.434,716.889 853.5,717.5 Z"/></g>
<g><path style="opacity:1" fill="#faf477" d="M 848.5,744.5 C 854.5,744.5 860.5,744.5 866.5,744.5C 860.021,745.491 853.354,745.824 846.5,745.5C 846.333,734.162 846.5,722.828 847,711.5C 847.17,722.674 847.67,733.674 848.5,744.5 Z"/></g>
<g><path style="opacity:1" fill="#fae563" d="M 214.5,731.5 C 213.448,731.649 212.448,731.483 211.5,731C 217.841,725.878 218.175,720.211 212.5,714C 205.335,711.973 198.001,711.14 190.5,711.5C 190.5,722.5 190.5,733.5 190.5,744.5C 191.833,744.5 193.167,744.5 194.5,744.5C 194.335,741.482 194.502,738.482 195,735.5C 195.179,739.025 195.679,742.359 196.5,745.5C 194.052,746.473 191.385,746.806 188.5,746.5C 188.5,734.167 188.5,721.833 188.5,709.5C 195.508,709.334 202.508,709.5 209.5,710C 217.891,713.615 220.724,719.782 218,728.5C 216.961,729.71 215.794,730.71 214.5,731.5 Z M 203.5,716.5 C 209.263,716.776 211.43,719.776 210,725.5C 209.097,726.701 207.931,727.535 206.5,728C 203.183,728.498 199.85,728.665 196.5,728.5C 196.5,726.167 196.5,723.833 196.5,721.5C 196.5,719.833 196.5,718.167 196.5,716.5C 198.833,716.5 201.167,716.5 203.5,716.5 Z"/></g>
<g><path style="opacity:1" fill="#f9de59" d="M 196.5,721.5 C 196.5,723.833 196.5,726.167 196.5,728.5C 199.85,728.665 203.183,728.498 206.5,728C 207.931,727.535 209.097,726.701 210,725.5C 211.43,719.776 209.263,716.776 203.5,716.5C 201.369,715.686 199.036,715.186 196.5,715C 200.167,714.333 203.833,714.333 207.5,715C 215.104,719.568 215.437,724.735 208.5,730.5C 195.163,734.995 190.663,730.661 195,717.5C 195.21,719.058 195.71,720.391 196.5,721.5 Z"/></g>
<g><path style="opacity:1" fill="#f9e162" d="M 213.5,736.5 C 216.412,738.802 218.745,741.636 220.5,745C 217.706,746.557 214.706,746.89 211.5,746C 209.167,743 206.833,740 204.5,737C 202.19,736.503 199.857,736.337 197.5,736.5C 198.598,735.603 198.598,734.77 197.5,734C 199.5,733.333 201.5,733.333 203.5,734C 207.44,737.377 211.273,740.877 215,744.5C 215.5,744.333 216,744.167 216.5,744C 214.65,740.638 212.317,737.638 209.5,735C 211.066,734.7 212.399,735.2 213.5,736.5 Z"/></g>
<g><path style="opacity:1" fill="#fadc60" d="M 273.5,724.5 C 272.698,725.952 272.198,727.618 272,729.5C 269.361,714.59 260.528,708.757 245.5,712C 240.754,715.004 237.587,719.171 236,724.5C 234.816,733.978 238.649,740.478 247.5,744C 259.265,746.218 267.099,741.718 271,730.5C 271.494,732.134 271.66,733.801 271.5,735.5C 268.281,743.457 262.281,747.457 253.5,747.5C 238.042,745.591 231.542,736.925 234,721.5C 237.246,712.707 243.58,708.373 253,708.5C 263.781,708.781 270.614,714.114 273.5,724.5 Z"/></g>
<g><path style="opacity:1" fill="#faee7a" d="M 769.5,716.5 C 769.5,725.5 769.5,734.5 769.5,743.5C 770.833,743.5 772.167,743.5 773.5,743.5C 773.5,734.833 773.5,726.167 773.5,717.5C 774.167,726.167 774.833,734.833 775.5,743.5C 774.666,744.748 773.333,745.415 771.5,745.5C 769.667,745.415 768.334,744.748 767.5,743.5C 768.167,734.5 768.833,725.5 769.5,716.5 Z"/></g>
<g><path style="opacity:1" fill="#fadc5e" d="M 404.5,735.5 C 408.052,738.387 410.385,742.053 411.5,746.5C 408.482,746.665 405.482,746.498 402.5,746C 400.432,743.358 398.765,740.525 397.5,737.5C 397.369,736.761 397.536,736.094 398,735.5C 400.678,738.677 403.512,741.677 406.5,744.5C 406.833,744.167 407.167,743.833 407.5,743.5C 405.694,740.528 403.694,737.695 401.5,735C 402.577,734.53 403.577,734.697 404.5,735.5 Z"/></g>
<g><path style="opacity:1" fill="#f5ce59" d="M 517.5,726.5 C 518.404,727.209 518.737,728.209 518.5,729.5C 513.056,728.892 508.056,729.558 503.5,731.5C 503.5,734.167 503.5,736.833 503.5,739.5C 510.022,739.177 516.355,739.51 522.5,740.5C 516.158,740.334 509.825,740.5 503.5,741C 509.348,741.173 515.015,741.673 520.5,742.5C 514.491,742.666 508.491,742.499 502.5,742C 501.333,741.5 500.5,740.667 500,739.5C 499.034,735.882 499.534,732.549 501.5,729.5C 507.216,729.215 512.55,728.215 517.5,726.5 Z"/></g>
<g><path style="opacity:1" fill="#e4b438" d="M 614.5,710.5 C 614.5,719.833 614.5,729.167 614.5,738.5C 618.5,738.5 622.5,738.5 626.5,738.5C 622.573,739.138 618.573,739.971 614.5,741C 619.533,741.171 624.533,741.671 629.5,742.5C 622.532,743.497 615.532,743.83 608.5,743.5C 608.5,732.833 608.5,722.167 608.5,711.5C 609.5,711.5 610.5,711.5 611.5,711.5C 611.168,720.525 611.502,729.525 612.5,738.5C 613.167,729.009 613.833,719.675 614.5,710.5 Z"/></g>
<g><path style="opacity:1" fill="#e6b336" d="M 556.5,739.5 C 559.33,736.67 558.997,734.336 555.5,732.5C 556.822,732.33 557.989,732.663 559,733.5C 559.617,732.551 559.451,731.718 558.5,731C 554.5,730 550.5,729 546.5,728C 538.965,723.515 538.632,718.515 545.5,713C 551.499,710.601 557.165,711.101 562.5,714.5C 562.167,714.833 561.833,715.167 561.5,715.5C 557.664,713.687 553.664,713.187 549.5,714C 544.617,715.502 543.284,718.669 545.5,723.5C 549.889,725.813 554.556,727.313 559.5,728C 566.341,733.66 566.008,738.994 558.5,744C 553.833,744.667 549.167,744.667 544.5,744C 542.777,743.477 541.444,742.477 540.5,741C 540.833,740.5 541.167,740 541.5,739.5C 546.621,742.65 552.121,743.316 558,741.5C 560.298,739.696 560.965,737.363 560,734.5C 559.667,735.833 559.333,737.167 559,738.5C 558.329,739.252 557.496,739.586 556.5,739.5 Z"/></g>
<g><path style="opacity:1" fill="#faef77" d="M 338.5,712.5 C 337.506,722.987 337.172,733.654 337.5,744.5C 345.528,744.831 353.528,744.498 361.5,743.5C 355.5,742.833 349.5,742.167 343.5,741.5C 349.798,740.504 356.132,740.17 362.5,740.5C 362.5,742.167 362.5,743.833 362.5,745.5C 354.648,745.175 346.982,745.508 339.5,746.5C 337.901,746.768 336.568,746.434 335.5,745.5C 336.495,734.012 336.828,722.345 336.5,710.5C 338.993,710.131 339.66,710.797 338.5,712.5 Z"/></g>
<g><path style="opacity:1" fill="#f90000" d="M -0.5,1022.5 C 0.166667,1022.5 0.5,1022.83 0.5,1023.5C 0.166667,1023.17 -0.166667,1022.83 -0.5,1022.5 Z"/></g>
<g><path style="opacity:1" fill="#f90000" d="M 1023.5,1022.5 C 1023.5,1022.83 1023.5,1023.17 1023.5,1023.5C 1022.83,1023.02 1022.83,1022.69 1023.5,1022.5 Z"/></g>
</svg>
